<?xml version="1.0" standalone="no"?>
<!DOCTYPE svg PUBLIC "-//W3C//DTD SVG 20010904//EN"
 "http://www.w3.org/TR/2001/REC-SVG-20010904/DTD/svg10.dtd">
<svg version="1.0" xmlns="http://www.w3.org/2000/svg"
 width="512.000000pt" height="512.000000pt" viewBox="0 0 512.000000 512.000000"
 preserveAspectRatio="xMidYMid meet">

<g transform="translate(0.000000,512.000000) scale(0.100000,-0.100000)"
fill="#000000" stroke="none">
<path d="M1846 3728 c-14 -19 -16 -63 -16 -280 0 -245 1 -259 20 -278 27 -27
71 -26 98 3 20 21 22 34 22 141 0 69 4 115 9 112 5 -4 46 -61 92 -129 45 -67
89 -128 97 -134 24 -19 69 -16 92 7 19 19 20 33 20 280 0 247 -1 261 -20 280
-23 23 -68 26 -96 6 -17 -13 -20 -31 -24 -143 l-5 -128 -89 130 c-49 72 -96
136 -104 143 -26 20 -79 15 -96 -10z"/>
<path d="M2437 3732 c-15 -16 -17 -51 -17 -280 0 -323 -10 -302 149 -302 106
0 110 1 130 26 27 34 27 64 1 92 -17 18 -32 22 -80 22 l-60 0 0 210 c0 197 -1
211 -20 230 -26 26 -81 26 -103 2z"/>
<path d="M2884 3742 c-30 -20 -34 -55 -34 -295 0 -232 1 -246 21 -271 24 -31
66 -35 99 -8 18 15 23 31 27 89 l6 71 77 3 c64 3 83 8 116 31 21 15 50 44 64
65 21 31 25 48 25 114 0 70 -3 81 -30 120 -16 23 -50 53 -74 66 -39 20 -58 23
-165 23 -67 0 -126 -4 -132 -8z m241 -157 c14 -13 25 -33 25 -45 0 -11 -11
-32 -25 -45 -19 -20 -34 -25 -75 -25 l-50 0 0 70 0 70 50 0 c41 0 56 -5 75
-25z"/>
<path d="M670 2858 c-20 -22 -20 -31 -20 -770 l0 -748 70 0 70 0 2 698 3 697
298 3 c163 1 297 4 297 7 0 2 -16 34 -36 70 l-36 65 -314 0 c-309 0 -313 0
-334 -22z"/>
<path d="M3766 2815 c-20 -36 -36 -68 -36 -70 0 -3 134 -6 298 -7 l297 -3 3
-697 2 -698 70 0 70 0 0 748 0 749 -23 21 c-23 22 -29 22 -334 22 l-311 0 -36
-65z"/>
<path d="M2490 1563 l0 -223 70 0 70 0 0 223 0 223 -70 0 -70 0 0 -223z"/>
<path d="M312 1047 c-28 -30 -28 -68 1 -95 23 -21 31 -22 255 -22 219 0 233 1
252 20 11 11 20 33 20 50 0 17 -9 39 -20 50 -19 19 -33 20 -253 20 -231 0
-234 0 -255 -23z"/>
<path d="M2150 1050 c-11 -11 -20 -33 -20 -50 0 -17 9 -39 20 -50 19 -19 33
-20 258 -20 219 0 240 2 255 18 23 25 21 78 -3 102 -19 19 -33 20 -255 20
-222 0 -236 -1 -255 -20z"/>
<path d="M3990 1050 c-11 -11 -20 -33 -20 -50 0 -17 9 -39 20 -50 19 -19 33
-20 255 -20 222 0 236 1 255 20 27 27 26 71 -3 98 -23 21 -31 22 -255 22 -219
0 -233 -1 -252 -20z"/>
<path d="M2184 743 c-55 -11 -76 -86 -35 -126 21 -22 23 -22 412 -22 l391 0
24 28 c30 35 30 59 0 94 l-24 28 -374 1 c-205 1 -383 0 -394 -3z"/>
<path d="M310 720 c-26 -26 -26 -74 0 -100 19 -19 33 -20 408 -20 335 0 391 2
410 16 29 20 30 76 2 104 -19 19 -33 20 -410 20 -377 0 -391 -1 -410 -20z"/>
<path d="M3990 720 c-28 -28 -27 -84 2 -104 19 -14 75 -16 410 -16 375 0 389
1 408 20 11 11 20 33 20 50 0 17 -9 39 -20 50 -19 19 -33 20 -410 20 -377 0
-391 -1 -410 -20z"/>
<path d="M2184 413 c-55 -11 -76 -86 -35 -126 21 -22 23 -22 412 -22 l391 0
24 28 c30 35 30 59 0 94 l-24 28 -374 1 c-205 1 -383 0 -394 -3z"/>
<path d="M310 390 c-26 -26 -26 -74 0 -100 19 -19 33 -20 410 -20 377 0 391 1
410 20 11 11 20 33 20 50 0 17 -9 39 -20 50 -19 19 -33 20 -410 20 -377 0
-391 -1 -410 -20z"/>
<path d="M3992 394 c-29 -20 -30 -76 -2 -104 19 -19 33 -20 410 -20 377 0 391
1 410 20 11 11 20 33 20 50 0 17 -9 39 -20 50 -19 19 -33 20 -408 20 -335 0
-391 -2 -410 -16z"/>
</g>
</svg>
