<?xml version="1.0" standalone="no"?>
<!DOCTYPE svg PUBLIC "-//W3C//DTD SVG 20010904//EN"
 "http://www.w3.org/TR/2001/REC-SVG-20010904/DTD/svg10.dtd">
<svg version="1.0" xmlns="http://www.w3.org/2000/svg"
 width="225.000000pt" height="225.000000pt" viewBox="0 0 225.000000 225.000000"
 preserveAspectRatio="xMidYMid meet">

<g transform="translate(0.000000,225.000000) scale(0.100000,-0.100000)"
fill="#000000" stroke="none">
<path d="M648 1843 c-59 -61 -138 -169 -138 -190 0 -4 19 21 41 57 22 36 71
95 107 133 37 37 64 67 61 67 -2 0 -34 -30 -71 -67z"/>
<path d="M1601 1836 c36 -39 78 -92 93 -118 35 -59 46 -64 14 -6 -13 24 -57
77 -98 119 l-75 75 66 -70z"/>
<path d="M1473 1695 c-29 -13 -53 -27 -53 -30 0 -3 15 2 33 11 17 10 50 23 72
30 22 7 31 13 20 13 -11 1 -44 -10 -72 -24z"/>
<path d="M1608 1651 c4 -35 0 -41 -40 -73 -58 -47 -315 -181 -329 -172 -8 4
-9 3 -5 -4 4 -7 3 -12 -2 -12 -5 0 -14 -11 -20 -25 -11 -23 11 -14 176 71 232
121 252 135 252 181 0 35 -15 73 -28 73 -4 0 -6 -17 -4 -39z"/>
<path d="M1495 1670 c-4 -7 0 -19 9 -28 14 -14 17 -14 14 -2 -2 8 3 14 10 12
8 -1 12 3 10 10 -6 17 -34 22 -43 8z"/>
<path d="M1389 1643 c-13 -16 -12 -17 4 -4 16 13 21 21 13 21 -2 0 -10 -8 -17
-17z"/>
<path d="M481 1585 c-12 -31 -21 -61 -20 -68 0 -7 11 17 24 53 13 35 22 66 20
68 -1 2 -12 -22 -24 -53z"/>
<path d="M1741 1640 c-1 -3 8 -27 19 -55 10 -27 19 -43 19 -35 0 14 -36 101
-38 90z"/>
<path d="M1325 1594 l-40 -36 43 32 c36 27 49 40 40 40 -2 0 -21 -16 -43 -36z"/>
<path d="M1367 1593 c-11 -10 -8 -41 4 -49 6 -3 18 1 27 9 13 13 13 19 2 31
-14 17 -23 20 -33 9z m25 -35 c-6 -6 -15 -8 -19 -4 -4 4 -1 11 7 16 19 12 27
3 12 -12z"/>
<path d="M1259 1543 c-13 -16 -12 -17 4 -4 9 7 17 15 17 17 0 8 -8 3 -21 -13z"/>
<path d="M1200 1499 c-35 -31 -35 -31 -3 -9 18 11 35 25 38 30 10 16 2 11 -35
-21z"/>
<path d="M1242 1508 c-17 -17 -15 -33 3 -18 8 6 20 8 27 4 10 -6 9 -3 -1 9
-16 20 -14 20 -29 5z"/>
<path d="M451 1474 c0 -11 3 -14 6 -6 3 7 2 16 -1 19 -3 4 -6 -2 -5 -13z"/>
<path d="M1791 1474 c0 -11 3 -14 6 -6 3 7 2 16 -1 19 -3 4 -6 -2 -5 -13z"/>
<path d="M1205 1440 c10 -11 20 -20 23 -20 3 0 -3 9 -13 20 -10 11 -20 20 -23
20 -3 0 3 -9 13 -20z"/>
<path d="M441 1414 c0 -11 3 -14 6 -6 3 7 2 16 -1 19 -3 4 -6 -2 -5 -13z"/>
<path d="M1801 1414 c0 -11 3 -14 6 -6 3 7 2 16 -1 19 -3 4 -6 -2 -5 -13z"/>
<path d="M1155 1259 c-21 -34 -81 -104 -134 -157 -53 -52 -86 -90 -73 -83 61
32 217 210 242 275 15 40 6 31 -35 -35z"/>
<path d="M362 1245 c0 -16 2 -22 5 -12 2 9 2 23 0 30 -3 6 -5 -1 -5 -18z"/>
<path d="M1882 1245 c0 -16 2 -22 5 -12 2 9 2 23 0 30 -3 6 -5 -1 -5 -18z"/>
<path d="M372 1185 c0 -16 2 -22 5 -12 2 9 2 23 0 30 -3 6 -5 -1 -5 -18z"/>
<path d="M1872 1185 c0 -16 2 -22 5 -12 2 9 2 23 0 30 -3 6 -5 -1 -5 -18z"/>
<path d="M386 1120 c21 -116 126 -294 228 -387 395 -361 1008 -220 1213 278
17 41 34 90 37 109 4 22 -4 8 -22 -36 -77 -190 -206 -328 -387 -415 -119 -57
-190 -73 -330 -73 -140 0 -211 16 -330 73 -181 87 -310 225 -387 415 -18 44
-26 58 -22 36z"/>
<path d="M664 555 c10 -7 15 -18 11 -24 -3 -6 -2 -11 4 -11 5 0 13 5 17 12 7
11 -21 38 -40 38 -6 0 -3 -7 8 -15z"/>
<path d="M578 519 c-31 -18 -20 -48 42 -114 54 -58 60 -69 60 -108 0 -43 -15
-67 -50 -80 -13 -5 -12 -6 1 -6 29 -2 66 37 73 75 8 41 -6 69 -61 117 -29 25
-63 74 -63 91 0 2 7 12 16 20 17 18 8 21 -18 5z"/>
<path d="M1050 455 c6 -8 9 -19 5 -25 -3 -5 -2 -10 4 -10 5 0 13 5 16 10 8 12
-12 40 -27 40 -6 0 -5 -6 2 -15z"/>
<path d="M1228 454 c20 -15 22 -24 22 -115 0 -57 4 -100 10 -104 8 -5 7 -12
-2 -23 -11 -13 -11 -14 2 -10 12 4 14 23 12 109 -4 127 -6 133 -40 147 -27 12
-27 12 -4 -4z"/>
<path d="M1595 444 c7 -15 19 -49 25 -76 14 -57 36 -66 25 -10 -8 46 -36 105
-52 110 -9 3 -9 -4 2 -24z"/>
<path d="M888 433 c3 -18 7 -21 13 -11 12 18 11 25 -4 31 -10 4 -13 -2 -9 -20z"/>
<path d="M1457 446 c17 -8 39 -28 47 -45 31 -60 13 -161 -35 -195 -13 -9 -19
-16 -13 -16 18 0 54 31 69 60 8 16 15 54 15 84 0 47 -4 60 -27 85 -16 17 -41
33 -58 36 l-30 6 32 -15z"/>
<path d="M1727 441 c2 -10 -14 -78 -37 -151 -31 -98 -49 -141 -70 -162 -16
-15 -23 -28 -16 -28 7 0 25 13 40 29 35 36 120 303 103 320 -17 17 -26 13 -20
-8z"/>
<path d="M799 411 c-20 -16 -24 -28 -24 -75 0 -40 5 -60 18 -73 17 -17 18 -17
8 10 -18 46 -13 102 10 131 24 31 20 33 -12 7z"/>
<path d="M992 408 c-8 -8 -12 -45 -12 -100 0 -60 -4 -88 -12 -88 -6 0 -9 -2
-6 -5 3 -3 12 -3 21 1 13 4 16 26 19 105 2 54 3 99 3 99 -1 0 -6 -5 -13 -12z"/>
<path d="M1378 409 c-25 -14 -26 -154 -2 -163 9 -4 19 -4 22 -1 3 3 0 5 -6 5
-8 0 -12 24 -12 75 0 60 3 76 18 84 9 6 13 10 7 10 -5 0 -18 -4 -27 -10z"/>
<path d="M1138 296 c-11 -25 -6 -56 10 -56 5 0 7 11 5 23 -3 14 2 31 12 40 15
15 15 17 0 17 -8 0 -20 -11 -27 -24z"/>
<path d="M886 246 c5 -13 1 -23 -12 -33 -19 -14 -19 -15 1 -11 23 4 32 35 15
52 -8 8 -9 6 -4 -8z"/>
<path d="M1370 151 c0 -28 5 -51 10 -51 6 0 10 20 10 44 0 25 -4 48 -10 51 -6
4 -10 -13 -10 -44z"/>
</g>
</svg>
