<?xml version="1.0" standalone="no"?>
<!DOCTYPE svg PUBLIC "-//W3C//DTD SVG 20010904//EN"
 "http://www.w3.org/TR/2001/REC-SVG-20010904/DTD/svg10.dtd">
<svg version="1.0" xmlns="http://www.w3.org/2000/svg"
 width="500.000000pt" height="500.000000pt" viewBox="0 0 500.000000 500.000000"
 preserveAspectRatio="xMidYMid meet">

<g transform="translate(0.000000,500.000000) scale(0.100000,-0.100000)"
fill="#000000" stroke="none">
<path d="M1513 3973 c-42 -8 -112 -82 -148 -156 -76 -159 -62 -315 30 -333 39
-7 82 5 126 37 43 31 29 35 -16 4 -42 -28 -108 -34 -137 -11 -108 81 28 446
166 446 43 0 56 -16 56 -70 0 -59 -35 -128 -79 -157 -23 -16 -28 -23 -16 -23
30 0 82 63 99 120 22 73 20 97 -9 125 -24 25 -30 26 -72 18z"/>
<path d="M2391 3913 c-6 -21 -21 -78 -33 -127 -20 -77 -27 -92 -53 -108 -18
-11 -44 -17 -65 -16 -31 3 -35 6 -32 28 2 21 -2 26 -20 25 -13 -1 -36 -7 -51
-13 -39 -17 -83 -15 -112 4 -23 15 -26 15 -51 -13 -26 -27 -26 -27 -19 -4 l7
24 -28 -20 c-42 -30 -118 -53 -172 -53 l-47 1 46 24 c49 25 68 53 47 66 -30
19 -88 -18 -134 -85 -36 -54 -43 -47 -19 19 17 48 17 45 7 45 -5 0 -16 -15
-24 -34 -9 -18 -30 -49 -47 -69 -17 -19 -31 -39 -31 -43 1 -5 17 9 36 31 l35
40 -7 -37 c-8 -49 9 -50 34 -1 l19 36 79 -2 c66 -1 88 3 132 23 l52 25 0 -22
c1 -20 3 -19 29 12 24 29 30 32 49 22 11 -6 41 -11 66 -11 39 0 46 -3 46 -20
0 -24 22 -26 40 -5 11 14 15 14 32 -2 19 -17 51 -13 110 11 15 7 16 4 3 -43
-7 -28 -10 -51 -5 -51 4 0 11 15 14 34 7 37 16 42 121 56 33 4 70 11 82 15 18
6 21 4 16 -14 -7 -27 -4 -27 56 10 54 34 78 33 83 -3 4 -31 36 -34 91 -10 38
17 44 17 43 4 -2 -22 19 -26 38 -7 15 15 17 15 32 1 19 -20 35 -20 81 -1 20 8
38 13 40 11 3 -2 0 -21 -6 -43 -13 -47 -14 -56 -2 -49 5 4 12 24 16 47 6 32
10 39 23 34 41 -16 81 -16 135 3 55 18 57 18 57 0 0 -22 23 -24 40 -3 11 13
14 13 27 0 20 -20 46 -19 93 5 l40 20 0 -22 c1 -21 3 -21 29 11 24 29 30 32
49 22 25 -13 119 -15 127 -1 3 5 -13 7 -43 3 -37 -4 -56 -1 -75 12 -26 16 -27
16 -53 -12 -26 -27 -26 -27 -19 -4 l7 24 -32 -23 c-21 -15 -48 -24 -74 -24
-38 -1 -41 1 -39 25 1 22 -2 25 -25 23 -15 -1 -49 -14 -76 -28 -57 -30 -145
-36 -165 -12 -19 22 20 56 64 56 19 0 35 5 35 10 0 15 -37 12 -71 -6 -29 -15
-31 -14 -26 3 3 10 15 54 27 98 12 44 24 89 27 100 4 14 2 17 -5 10 -6 -5 -20
-48 -32 -95 -12 -47 -25 -101 -30 -121 -11 -39 -58 -69 -110 -69 -25 0 -30 4
-30 24 0 37 -27 39 -86 5 -65 -37 -105 -36 -114 1 -8 32 -39 30 -92 -5 -24
-16 -38 -21 -38 -13 0 7 15 70 34 141 19 70 31 127 27 127 -4 0 -18 -42 -31
-92 -35 -141 -42 -155 -87 -167 -21 -6 -51 -11 -66 -11 -24 0 -27 3 -22 20 8
25 -15 36 -44 20 -12 -6 -21 -9 -21 -7 0 2 14 57 31 121 17 65 28 120 25 123
-2 3 -9 -12 -15 -34z m-593 -205 c-5 -15 -65 -47 -88 -47 -9 0 -3 11 18 29 32
30 77 41 70 18z m600 -15 c-2 -10 -14 -20 -28 -22 -25 -3 -25 -3 -6 18 23 26
39 27 34 4z m-218 -2 c0 -11 -29 -35 -35 -29 -10 9 7 38 21 38 8 0 14 -4 14
-9z m680 -11 c-12 -23 -30 -27 -30 -7 0 17 10 27 27 27 11 0 11 -5 3 -20z
m420 11 c0 -11 -29 -35 -35 -29 -10 9 7 38 21 38 8 0 14 -4 14 -9z"/>
<path d="M1610 3538 c0 -7 -3 -24 -6 -38 -5 -17 -4 -22 4 -15 16 15 26 65 13
65 -6 0 -11 -6 -11 -12z"/>
</g>
</svg>
