<?xml version="1.0" encoding="UTF-8"?>
<svg version="1.1" xmlns="http://www.w3.org/2000/svg" width="500" height="342">
<path d="M0 0 C3.51551024 0.86283314 4.85828082 2.57815565 6.92578125 5.47265625 C10.19447036 12.46671704 10.43201445 19.36251689 10.36328125 26.97265625 C10.35643311 28.14957031 10.34958496 29.32648438 10.3425293 30.5390625 C9.85720423 57.73180761 3.13537937 87.05346 -9.07421875 111.47265625 C-10.0107604 120.761307 -8.99447382 131.24564949 -3.24609375 138.91015625 C-1.18050772 140.73004689 -1.18050772 140.73004689 1.43359375 140.3984375 C10.39721879 137.06868964 14.71117851 128.49357209 18.92578125 120.47265625 C17.44078125 119.97765625 17.44078125 119.97765625 15.92578125 119.47265625 C14.38980671 116.40070717 14.69927745 113.87021332 14.92578125 110.47265625 C16.11328125 107.09765625 16.11328125 107.09765625 17.92578125 104.47265625 C20.92156713 103.24361589 22.23848332 103.19402195 25.23828125 104.41015625 C26.07359375 104.93609375 26.07359375 104.93609375 26.92578125 105.47265625 C26.45088775 109.58839996 25.90475685 112.83648969 23.92578125 116.47265625 C24.69664062 116.38886719 25.4675 116.30507812 26.26171875 116.21875 C27.26460937 116.11691406 28.2675 116.01507813 29.30078125 115.91015625 C30.79738281 115.75353516 30.79738281 115.75353516 32.32421875 115.59375 C34.92578125 115.47265625 34.92578125 115.47265625 36.92578125 116.47265625 C37.9362292 119.50400009 37.97611074 121.21661568 37.8046875 124.359375 C37.75634766 125.29716797 37.70800781 126.23496094 37.65820312 127.20117188 C37.60212891 128.17763672 37.54605469 129.15410156 37.48828125 130.16015625 C37.43607422 131.14822266 37.38386719 132.13628906 37.33007812 133.15429688 C37.20042819 135.59407301 37.06546383 138.0334373 36.92578125 140.47265625 C42.74737259 137.82204343 45.84646326 135.04845601 48.92578125 129.47265625 C49.5721465 127.22408865 49.9824809 125.0053747 50.390625 122.703125 C52.20115918 115.15702998 57.56765446 110.44174534 63.92578125 106.47265625 C67.16596078 104.52058088 69.59066366 104.20172633 73.36328125 104.22265625 C74.29011719 104.2175 75.21695313 104.21234375 76.171875 104.20703125 C79.08632301 104.48814113 81.27468622 105.26017722 83.92578125 106.47265625 C84.25578125 105.48265625 84.58578125 104.49265625 84.92578125 103.47265625 C87.80078125 103.34765625 87.80078125 103.34765625 90.92578125 103.47265625 C92.92578125 105.47265625 92.92578125 105.47265625 93.02929688 107.36450195 C92.93165039 108.49505005 92.93165039 108.49505005 92.83203125 109.6484375 C92.77144531 110.47666016 92.71085938 111.30488281 92.6484375 112.15820312 C92.50098615 113.89787032 92.35256188 115.63745536 92.203125 117.37695312 C91.87236751 121.91959056 91.62555639 125.35689677 93.92578125 129.47265625 C95.01894693 130.7742556 95.01894693 130.7742556 97.6875 130.77734375 C101.65463362 130.40407907 102.89466699 129.32016258 105.73828125 126.59765625 C106.50785156 125.87835938 107.27742187 125.1590625 108.0703125 124.41796875 C111.90061323 120.40220083 111.26457106 115.95844836 111.546875 110.63671875 C111.8966888 107.71559316 112.41540476 105.95529939 113.92578125 103.47265625 C115.90578125 103.47265625 117.88578125 103.47265625 119.92578125 103.47265625 C121.20434862 106.029791 121.05523412 107.85388227 121.05859375 110.71484375 C121.05988281 111.7821875 121.06117188 112.84953125 121.0625 113.94921875 C121.05863281 115.07070312 121.05476562 116.1921875 121.05078125 117.34765625 C121.05464844 118.43046875 121.05851563 119.51328125 121.0625 120.62890625 C121.05375518 127.95706218 120.64821372 135.1808606 119.92578125 142.47265625 C120.77398437 141.79460937 121.6221875 141.1165625 122.49609375 140.41796875 C128.75074022 135.44501213 135.05428251 130.56439019 141.55078125 125.91015625 C142.12973145 125.49330566 142.70868164 125.07645508 143.30517578 124.64697266 C150.59382123 119.47265625 150.59382123 119.47265625 155.92578125 119.47265625 C154.35346691 123.51710339 151.47383852 125.97803356 148.30078125 128.78515625 C147.75808594 129.27443604 147.21539062 129.76371582 146.65625 130.26782227 C143.778851 132.85432033 140.86424694 135.3932426 137.92578125 137.91015625 C134.38397645 141.01110349 130.9431565 144.20971099 127.55078125 147.47265625 C127.02613281 147.95919678 126.50148438 148.4457373 125.9609375 148.94702148 C120.59414223 154.19558611 119.74757134 159.93329213 119.3984375 167.19921875 C119.29631958 169.10272095 119.29631958 169.10272095 119.19213867 171.04467773 C119.15929779 171.70635956 119.12645691 172.36804138 119.09262085 173.04977417 C116.54998599 222.95428191 116.54998599 222.95428191 104.92578125 235.47265625 C101.94672416 237.8353567 98.6586234 237.95992436 94.890625 237.84765625 C91.36855369 237.17545179 89.96519074 235.29183996 87.92578125 232.47265625 C86.17629556 227.46360249 85.57020897 222.80658742 85.61328125 217.53515625 C85.6189209 216.79789307 85.62456055 216.06062988 85.63037109 215.30102539 C86.09970193 193.51431633 94.23512166 175.67316542 106.92578125 158.34765625 C109.73241202 154.31312452 110.04497149 151.11541035 110.2421875 146.26953125 C110.28408203 145.28984375 110.32597656 144.31015625 110.36914062 143.30078125 C110.40845703 142.285 110.44777344 141.26921875 110.48828125 140.22265625 C110.55305664 138.67578125 110.55305664 138.67578125 110.61914062 137.09765625 C110.72503807 134.55611755 110.82711568 132.01448429 110.92578125 129.47265625 C110.06533203 130.63861328 110.06533203 130.63861328 109.1875 131.828125 C105.53421055 136.0997605 101.05724918 138.01587811 95.515625 138.82421875 C90.91781193 138.99308668 87.44868402 138.68471466 83.92578125 135.47265625 C82.66347801 133.1729135 81.81694232 130.95852659 80.92578125 128.47265625 C80.49007812 129.0759375 80.054375 129.67921875 79.60546875 130.30078125 C72.92994522 139.25927603 72.92994522 139.25927603 67.92578125 141.47265625 C61.90154498 142.23792112 56.89344395 142.31858867 51.92578125 138.47265625 C51.26578125 138.47265625 50.60578125 138.47265625 49.92578125 138.47265625 C49.38953125 139.21515625 48.85328125 139.95765625 48.30078125 140.72265625 C44.56802957 145.04478977 40.32445602 147.14975772 34.67578125 147.91015625 C31.52757793 147.40930572 30.13293488 146.76155631 27.92578125 144.47265625 C26.474164 140.68582864 27.01099391 136.95135817 27.30078125 132.97265625 C27.39101563 131.66296875 27.48125 130.35328125 27.57421875 129.00390625 C27.83839062 126.35044661 28.16168243 124.01101843 28.92578125 121.47265625 C26.61578125 121.47265625 24.30578125 121.47265625 21.92578125 121.47265625 C21.83296875 122.64828125 21.83296875 122.64828125 21.73828125 123.84765625 C19.8669491 132.19667663 15.66759904 139.16366327 8.92578125 144.47265625 C4.24086204 147.37516337 -0.73595131 147.09248411 -6.07421875 146.47265625 C-10.9977969 144.14514658 -13.51499679 141.23810404 -16.07421875 136.47265625 C-17.22429854 133.17543179 -18.19292932 129.85093239 -19.07421875 126.47265625 C-19.6775 127.17132813 -20.28078125 127.87 -20.90234375 128.58984375 C-21.7015625 129.49992188 -22.50078125 130.41 -23.32421875 131.34765625 C-24.113125 132.25257813 -24.90203125 133.1575 -25.71484375 134.08984375 C-29.08831536 137.49682667 -31.66892523 138.76758609 -36.44921875 138.91015625 C-39.82785487 138.83223054 -41.83663332 138.37527214 -44.51171875 136.28515625 C-46.90581406 133.65749066 -48.10786858 131.85488184 -49.07421875 128.47265625 C-49.80125 129.03533203 -49.80125 129.03533203 -50.54296875 129.609375 C-65.59931528 141.10431648 -65.59931528 141.10431648 -75.07421875 140.47265625 C-82.87444327 137.96544122 -88.09985744 133.53552725 -92.07421875 126.47265625 C-92.1721875 127.6534375 -92.27015625 128.83421875 -92.37109375 130.05078125 C-92.52120284 131.60816309 -92.67229622 133.16545027 -92.82421875 134.72265625 C-92.88609375 135.49996094 -92.94796875 136.27726563 -93.01171875 137.078125 C-93.40800463 140.94191233 -93.63925838 142.93958451 -96.15234375 146.01953125 C-96.7865625 146.4990625 -97.42078125 146.97859375 -98.07421875 147.47265625 C-99.72421875 146.81265625 -101.37421875 146.15265625 -103.07421875 145.47265625 C-103.51725688 75.07681111 -103.51725688 75.07681111 -101.07421875 51.47265625 C-101.00634155 50.81215271 -100.93846436 50.15164917 -100.86853027 49.47113037 C-100.35730667 44.54927411 -99.79402081 39.63506563 -99.19921875 34.72265625 C-99.05000977 33.46590088 -98.90080078 32.20914551 -98.74707031 30.91430664 C-96.07549048 10.69853309 -96.07549048 10.69853309 -90.19921875 5.22265625 C-86.697124 3.26148319 -85.00961832 2.70268677 -81.07421875 3.47265625 C-77.29627914 6.20116819 -76.30847188 9.08186639 -75.07421875 13.47265625 C-72.18414739 37.62756849 -81.45844913 63.85238087 -87.4152832 86.98339844 C-87.65569336 87.91967575 -87.89610352 88.85595306 -88.14379883 89.82060242 C-88.60054301 91.59449878 -89.06075252 93.36750754 -89.52490234 95.13948059 C-89.72913818 95.93077866 -89.93337402 96.72207672 -90.14379883 97.53735352 C-90.32413162 98.22789322 -90.50446442 98.91843292 -90.69026184 99.62989807 C-91.17620834 101.64842156 -91.17620834 101.64842156 -91.07421875 104.47265625 C-90.43484375 103.54453125 -89.79546875 102.61640625 -89.13671875 101.66015625 C-85.8484059 97.74947911 -82.0919221 96.18113596 -77.07421875 95.47265625 C-73.11089551 95.81758711 -69.95913379 96.58774121 -67.07421875 99.47265625 C-67.31426873 105.71395584 -69.25332942 109.72547186 -73.71875 114.07421875 C-76.96390587 116.94466163 -80.25771264 119.39092565 -84.07421875 121.47265625 C-79.43166376 127.5558336 -79.43166376 127.5558336 -73.07421875 131.47265625 C-65.55525802 132.08675464 -60.06128938 128.62948249 -54.07421875 124.47265625 C-53.35105469 124.06917969 -52.62789063 123.66570312 -51.8828125 123.25 C-49.18735036 120.60111172 -48.97957877 117.50368537 -48.44921875 113.91015625 C-47.31122992 106.70966742 -47.31122992 106.70966742 -45.07421875 104.47265625 C-42.57421875 104.22265625 -42.57421875 104.22265625 -40.07421875 104.47265625 C-38.07421875 106.47265625 -38.07421875 106.47265625 -37.94921875 110.39453125 C-37.99724976 112.81209198 -38.07438372 115.22777032 -38.15234375 117.64453125 C-38.2454608 122.362462 -37.90938633 126.02810978 -36.07421875 130.47265625 C-32.1491044 130.47265625 -30.06734628 130.36042251 -27.0859375 127.6953125 C-22.83758114 122.83125232 -20.94197243 120.24080388 -20.99243164 113.70385742 C-21.00222801 111.88376411 -21.00222801 111.88376411 -21.01222229 110.02690125 C-21.02083377 109.04859628 -21.02083377 109.04859628 -21.02961922 108.05052757 C-21.04708814 105.99049018 -21.05733963 103.93053158 -21.0655365 101.87043762 C-21.08987482 96.01047274 -21.1246211 90.15060989 -21.17016602 84.29077148 C-21.65084074 20.16240901 -21.65084074 20.16240901 -8.82421875 2.34765625 C-5.64625868 0.18086529 -3.78640095 -0.27809724 0 0 Z M-1.07421875 7.47265625 C-14.79021119 21.85345445 -11.28006946 68.66050777 -11.13671875 86.91015625 C-11.13220703 88.03486328 -11.12769531 89.15957031 -11.12304688 90.31835938 C-11.11148024 93.03651944 -11.09518926 95.75455537 -11.07421875 98.47265625 C1.54604078 79.54226696 3.93634394 47.11134858 4.23828125 24.97265625 C4.25608643 24.14725342 4.2738916 23.32185059 4.29223633 22.47143555 C4.28478489 16.82496796 3.17762691 12.65368373 0.92578125 7.47265625 C0.26578125 7.47265625 -0.39421875 7.47265625 -1.07421875 7.47265625 Z M-84.07421875 11.47265625 C-86.92575683 15.28440613 -87.86341274 19.10942819 -88.57421875 23.72265625 C-88.69458496 24.47498535 -88.81495117 25.22731445 -88.93896484 26.00244141 C-91.97030191 46.28063543 -93.35276554 66.99831162 -94.07421875 87.47265625 C-92.63525992 84.80174277 -91.71788096 82.42118697 -91.14453125 79.4453125 C-90.99105225 78.66430176 -90.83757324 77.88329102 -90.67944336 77.07861328 C-90.52096924 76.23927246 -90.36249512 75.39993164 -90.19921875 74.53515625 C-90.02849854 73.6519873 -89.85777832 72.76881836 -89.68188477 71.85888672 C-89.32251003 69.99605916 -88.96554316 68.13276566 -88.61083984 66.26904297 C-88.09783854 63.59574135 -87.5674233 60.92655068 -87.03125 58.2578125 C-85.21104706 49.11352146 -83.59795848 39.95074497 -82.26171875 30.72265625 C-82.05760376 29.38388428 -82.05760376 29.38388428 -81.84936523 28.01806641 C-81.05548533 22.25633241 -81.21774661 17.22908126 -82.07421875 11.47265625 C-82.73421875 11.47265625 -83.39421875 11.47265625 -84.07421875 11.47265625 Z M-12.07421875 99.47265625 C-11.07421875 101.47265625 -11.07421875 101.47265625 -11.07421875 101.47265625 Z M-87.30078125 108.58203125 C-89.30769517 110.72156063 -90.38138792 112.61472909 -91.07421875 115.47265625 C-84.53125484 113.84760639 -80.78791406 112.22289415 -77.07421875 106.47265625 C-77.07421875 105.48265625 -77.07421875 104.49265625 -77.07421875 103.47265625 C-82.2709447 103.47265625 -83.6100441 105.20685898 -87.30078125 108.58203125 Z M65.92578125 114.47265625 C61.58581585 119.41539462 60.44028945 125.04634791 59.92578125 131.47265625 C60.25578125 132.46265625 60.58578125 133.45265625 60.92578125 134.47265625 C64.18474791 134.40747692 66.86819236 134.29638027 69.515625 132.234375 C73.85213116 127.41475675 77.55464124 121.49738163 79.92578125 115.47265625 C79.68736915 113.20998666 79.68736915 113.20998666 78.92578125 111.47265625 C73.05783138 110.06434828 70.50614274 110.50300963 65.92578125 114.47265625 Z M108.92578125 165.47265625 C98.29004076 185.13085075 93.64331573 206.15282368 94.92578125 228.47265625 C95.25578125 229.13265625 95.58578125 229.79265625 95.92578125 230.47265625 C98.34765592 229.5035898 99.67891427 228.85338202 101.11669922 226.63598633 C103.39414392 221.21129794 104.97344412 215.941245 106.05078125 210.16015625 C106.21545898 209.30276855 106.38013672 208.44538086 106.54980469 207.56201172 C109.11490989 193.62663326 110.34798497 179.63993665 109.92578125 165.47265625 C109.59578125 165.47265625 109.26578125 165.47265625 108.92578125 165.47265625 Z " fill="#FDFDFD" transform="translate(341.07421875,90.52734375)"/>
<path d="M0 0 C3 0.25 3 0.25 5 2.25 C5.21181179 5.30077618 5.30174134 8.26724564 5.30859375 11.3203125 C5.33132499 13.24772588 5.3544548 15.17513459 5.37792969 17.10253906 C5.38707397 18.12383911 5.39621826 19.14513916 5.40563965 20.1973877 C5.97779761 77.26192346 12.09149586 134.56976125 24.63623047 190.27758789 C25 192.25 25 192.25 25 195.25 C26.19238281 195.21519531 27.38476562 195.18039063 28.61328125 195.14453125 C30.17967342 195.11639247 31.74608081 195.0890924 33.3125 195.0625 C34.09818359 195.03736328 34.88386719 195.01222656 35.69335938 194.98632812 C36.8293457 194.97182617 36.8293457 194.97182617 37.98828125 194.95703125 C39.03302612 194.93346558 39.03302612 194.93346558 40.09887695 194.90942383 C42.54489783 195.34761557 43.42702086 196.38437358 45 198.25 C44.67 198.91 44.34 199.57 44 200.25 C38.39 200.58 32.78 200.91 27 201.25 C32.09536046 220.72304767 37.16118307 240.05560612 44.16357422 258.94726562 C45.52236027 262.68809167 46.76454526 266.46695238 48 270.25 C46 272.25 46 272.25 43.625 272.6875 C41 272.25 41 272.25 39 270.4375 C28.54376221 253.77287102 24.30433623 233.27344158 19.5769043 214.38378906 C19.41219131 213.72700668 19.24747833 213.0702243 19.07777405 212.39353943 C18.62772561 210.59295631 18.18213294 208.79126119 17.73681641 206.98950195 C17.11465147 204.31300578 17.11465147 204.31300578 16 202.25 C3.13 202.91 -9.74 203.57 -23 204.25 C-24.92424763 208.73991114 -26.53294044 212.68594847 -27.875 217.29296875 C-52.99494378 301.78299081 -52.99494378 301.78299081 -86.5390625 322.96875 C-98.78427266 329.34403402 -111.37214933 330.67972269 -124.640625 327.33203125 C-145.65069958 320.56483281 -160.03314951 299.46323055 -169.85546875 280.76171875 C-171 278.25 -171 278.25 -171 276.25 C-171.66 275.92 -172.32 275.59 -173 275.25 C-173.85375977 273.2722168 -173.85375977 273.2722168 -174.69140625 270.69921875 C-174.99626953 269.77302734 -175.30113281 268.84683594 -175.61523438 267.89257812 C-175.92783203 266.91740234 -176.24042969 265.94222656 -176.5625 264.9375 C-177.03719727 263.49213867 -177.03719727 263.49213867 -177.52148438 262.01757812 C-180.90982496 251.6367385 -183.73389194 239.61679043 -179.3125 229.0625 C-174.15968373 219.60070844 -165.2425979 215.38207021 -155.40307617 212.20239258 C-149.49659189 210.54939056 -143.50599933 209.69223316 -137.4375 208.875 C-136.72555481 208.77561127 -136.01360962 208.67622253 -135.28009033 208.57382202 C-119.19222317 206.33768994 -103.03213474 204.70505636 -86.875 203.0625 C-85.63152802 202.93603088 -84.38805603 202.80956177 -83.10690308 202.67926025 C-66.41984665 200.99343228 -49.72418928 199.51532518 -33 198.25 C-22.37568137 151.24979829 -14.38589367 104.1263635 -9 56.25 C-8.87641113 55.15961426 -8.75282227 54.06922852 -8.62548828 52.94580078 C-7.6575146 44.22180418 -7.00021328 35.5009267 -6.51171875 26.73828125 C-6.46900345 25.98473358 -6.42628815 25.23118591 -6.38227844 24.45480347 C-6.16850489 20.66638279 -5.96596419 16.87799701 -5.78442383 13.08789062 C-5.71071399 11.70050674 -5.63675111 10.31313627 -5.5625 8.92578125 C-5.50191406 7.68739502 -5.44132813 6.44900879 -5.37890625 5.1730957 C-4.85374307 1.12169183 -4.07972627 0.33997719 0 0 Z M-2 88.25 C-3.49545473 94.69136181 -4.68493562 101.11948555 -5.69921875 107.65234375 C-6.02079187 109.68195585 -6.34283187 111.71149403 -6.6652832 113.7409668 C-6.83194489 114.79375824 -6.99860657 115.84654968 -7.1703186 116.9312439 C-10.64905927 138.83394691 -14.65101403 160.53744546 -19.4286499 182.19293213 C-19.85455347 184.12419171 -20.27692961 186.05622812 -20.69921875 187.98828125 C-20.94889404 189.11919189 -21.19856934 190.25010254 -21.45581055 191.4152832 C-22.09426527 194.25995382 -22.09426527 194.25995382 -22 197.25 C-17.89584883 197.27944154 -13.79172544 197.29694527 -9.6875 197.3125 C-7.96563477 197.32506836 -7.96563477 197.32506836 -6.20898438 197.33789062 C0.92131349 197.35808977 7.91344572 197.04718119 15 196.25 C13.9394962 188.99744438 12.75935379 181.77740698 11.44921875 174.56640625 C6.25674844 145.90323121 2.36353805 117.17824905 -1 88.25 C-1.33 88.25 -1.66 88.25 -2 88.25 Z M-64.84765625 206.640625 C-66.23402371 206.7885605 -67.62045441 206.93590432 -69.00694275 207.08270264 C-71.89914106 207.39058225 -74.79070878 207.70366242 -77.68188477 208.02099609 C-81.28727798 208.41658158 -84.89366017 208.80199837 -88.50052738 209.18388176 C-103.20764997 210.74314848 -117.8965126 212.42638657 -132.5625 214.3359375 C-133.78739639 214.49225647 -135.01229279 214.64857544 -136.27430725 214.80963135 C-153.99819288 217.05527384 -153.99819288 217.05527384 -168 227.25 C-173.12072368 236.46730263 -172.31816176 245.30885982 -170 255.25 C-164.88242475 272.26103412 -156.42773956 288.6427431 -145 302.25 C-144.20851563 303.21550781 -143.41703125 304.18101562 -142.6015625 305.17578125 C-135.09571671 313.92470875 -125.4461039 322.00092841 -113.63671875 323.5625 C-102.31834772 324.12577818 -92.90815127 318.30464627 -84.56640625 311.16796875 C-57.02093147 285.25545503 -44.69956842 242.74181982 -35 207.25 C-35 206.59 -35 205.93 -35 205.25 C-45.06605668 205.07164758 -54.83026939 205.53372792 -64.84765625 206.640625 Z " fill="#FDFDFD" transform="translate(189,7.75)"/>
<path d="M0 0 C1.1446875 0.3403125 1.1446875 0.3403125 2.3125 0.6875 C2.68260337 4.0184303 2.58711204 5.31481223 0.5625 8.0625 C-1.6875 9.6875 -1.6875 9.6875 -3.9375 9.4375 C-4.80375 9.06625 -4.80375 9.06625 -5.6875 8.6875 C-6.04825949 3.27610759 -6.04825949 3.27610759 -4.5 0.75 C-2.6875 -0.3125 -2.6875 -0.3125 0 0 Z " fill="#FDFDFD" transform="translate(302.6875,176.3125)"/>
<path d="M0 0 C0.33 0.66 0.66 1.32 1 2 C-2.32307692 5.93846154 -2.32307692 5.93846154 -5.75 6.25 C-6.4925 6.1675 -7.235 6.085 -8 6 C-8.33 4.35 -8.66 2.7 -9 1 C-5.68042385 -1.0901035 -3.73206842 -1.21040057 0 0 Z " fill="#FDFDFD" transform="translate(465,177)"/>
<path d="" fill="#FEFEFE" transform="translate(0,0)"/>
<path d="" fill="#FEFEFE" transform="translate(0,0)"/>
<path d="" fill="#FEFEFE" transform="translate(0,0)"/>
<path d="" fill="#FEFEFE" transform="translate(0,0)"/>
<path d="" fill="#FEFEFE" transform="translate(0,0)"/>
<path d="" fill="#FEFEFE" transform="translate(0,0)"/>
<path d="" fill="#FEFEFE" transform="translate(0,0)"/>
<path d="" fill="#FEFEFE" transform="translate(0,0)"/>
<path d="" fill="#FEFEFE" transform="translate(0,0)"/>
<path d="" fill="#FEFEFE" transform="translate(0,0)"/>
<path d="" fill="#FEFEFE" transform="translate(0,0)"/>
<path d="" fill="#FEFEFE" transform="translate(0,0)"/>
<path d="" fill="#FEFEFE" transform="translate(0,0)"/>
<path d="" fill="#FEFEFE" transform="translate(0,0)"/>
<path d="" fill="#FEFEFE" transform="translate(0,0)"/>
<path d="" fill="#FEFEFE" transform="translate(0,0)"/>
<path d="" fill="#FEFEFE" transform="translate(0,0)"/>
<path d="" fill="#FEFEFE" transform="translate(0,0)"/>
<path d="" fill="#FEFEFE" transform="translate(0,0)"/>
<path d="" fill="#FEFEFE" transform="translate(0,0)"/>
<path d="" fill="#FEFEFE" transform="translate(0,0)"/>
<path d="" fill="#FEFEFE" transform="translate(0,0)"/>
<path d="" fill="#FEFEFE" transform="translate(0,0)"/>
<path d="" fill="#FEFEFE" transform="translate(0,0)"/>
<path d="" fill="#FEFEFE" transform="translate(0,0)"/>
<path d="" fill="#FEFEFE" transform="translate(0,0)"/>
<path d="" fill="#FEFEFE" transform="translate(0,0)"/>
<path d="" fill="#FEFEFE" transform="translate(0,0)"/>
<path d="" fill="#FEFEFE" transform="translate(0,0)"/>
<path d="" fill="#FEFEFE" transform="translate(0,0)"/>
<path d="" fill="#FEFEFE" transform="translate(0,0)"/>
<path d="" fill="#FEFEFE" transform="translate(0,0)"/>
<path d="" fill="#FEFEFE" transform="translate(0,0)"/>
<path d="" fill="#FEFEFE" transform="translate(0,0)"/>
<path d="" fill="#FEFEFE" transform="translate(0,0)"/>
<path d="" fill="#FEFEFE" transform="translate(0,0)"/>
<path d="" fill="#FEFEFE" transform="translate(0,0)"/>
<path d="" fill="#FEFEFE" transform="translate(0,0)"/>
<path d="" fill="#FEFEFE" transform="translate(0,0)"/>
<path d="" fill="#FEFEFE" transform="translate(0,0)"/>
<path d="" fill="#FEFEFE" transform="translate(0,0)"/>
<path d="" fill="#FEFEFE" transform="translate(0,0)"/>
</svg>
