<?xml version="1.0" encoding="UTF-8"?>
<svg version="1.1" xmlns="http://www.w3.org/2000/svg" width="512" height="512">
<path d="M0 0 C1.0425097 -0.00570851 1.0425097 -0.00570851 2.1060802 -0.01153234 C4.44037517 -0.02185782 6.7744274 -0.01794022 9.1087389 -0.01409245 C10.79709781 -0.01854434 12.48545464 -0.02385822 14.1738084 -0.02996117 C18.81786684 -0.04415757 23.46185841 -0.04580415 28.10593545 -0.04536426 C33.11291636 -0.04701103 38.1198696 -0.06007495 43.12683582 -0.07155704 C54.07727478 -0.09441734 65.02769436 -0.1023288 75.97815394 -0.10738349 C82.81517084 -0.11063938 89.65218211 -0.11716122 96.48919582 -0.12438488 C115.41752631 -0.14395234 134.34585156 -0.16035563 153.27419281 -0.16326141 C154.4857222 -0.16344898 155.69725159 -0.16363655 156.94549398 -0.16382981 C159.40158387 -0.16419606 161.85767376 -0.16455976 164.31376364 -0.16492092 C165.53297758 -0.16510373 166.75219151 -0.16528654 168.00835133 -0.16547489 C169.22905277 -0.16565544 170.44975422 -0.16583599 171.70744661 -0.16602201 C191.48799291 -0.16956378 211.26843035 -0.19658575 231.04893889 -0.23397278 C251.35547415 -0.27204701 271.66195539 -0.29141883 291.96852714 -0.29172093 C303.37066231 -0.2923057 314.77266763 -0.30081082 326.1747694 -0.32971859 C335.8838107 -0.35422062 345.5926748 -0.36152328 355.30173864 -0.34647106 C360.25491868 -0.33929734 365.20774873 -0.34017971 370.16088963 -0.36288166 C374.6980421 -0.38347762 379.23457565 -0.38086551 383.77172146 -0.36000682 C385.41037091 -0.3565131 387.04906506 -0.36141695 388.68765589 -0.37571125 C397.57960811 -0.44826202 405.58126092 -0.33804281 413.00957203 5.26006222 C419.11137391 11.74681698 421.31049031 17.58790679 421.28804493 26.49207211 C421.29383733 27.31713825 421.29962973 28.1422044 421.30559766 28.99227256 C421.32259114 31.75450843 421.32547361 34.51657714 421.32841969 37.27886105 C421.33771831 39.2598731 421.34788688 41.24088124 421.35886097 43.22188473 C421.38618243 48.59950799 421.40131678 53.97710503 421.414289 59.35477948 C421.4299101 64.97490497 421.45670359 70.59497683 421.48231983 76.21506405 C421.52912566 86.85737555 421.56586107 97.49969713 421.59899271 108.14205903 C421.63720132 120.25805983 421.6866148 132.37400679 421.73697686 144.48996222 C421.84032356 169.41328899 421.92957509 194.33665034 422.00957203 219.26006222 C428.57100829 216.66443018 435.13226678 214.06834915 441.69340992 211.47197628 C443.91895629 210.59134242 446.14454126 209.71080612 448.37016773 208.83037472 C450.5324461 207.97498925 452.69466792 207.11946082 454.85683155 206.26378536 C456.97275301 205.42645888 459.08882029 204.58950081 461.20503712 203.7529211 C465.75785661 201.95153257 470.30798864 200.14484146 474.84502125 198.30400753 C475.54944859 198.01881252 476.25387592 197.73361752 476.97964954 197.43978024 C478.7909014 196.70467218 480.60039307 195.96523111 482.40971851 195.22539425 C485.00957203 194.26006222 485.00957203 194.26006222 487.00957203 194.26006222 C486.43677139 200.45720448 484.51255658 205.72195158 482.24004078 211.49053097 C481.6583765 212.99349224 481.6583765 212.99349224 481.06496143 214.52681637 C479.78241562 217.8363966 478.48964633 221.14188728 477.19707203 224.44756222 C476.2886474 226.78734309 475.38102739 229.1274365 474.47417164 231.46782589 C472.58972687 236.32917143 470.70182694 241.18915319 468.81132984 246.04814816 C464.94775796 255.98470875 461.1207815 265.93529377 457.29646778 275.88701534 C456.06293702 279.09632904 454.82823048 282.30518842 453.59331226 285.51396847 C447.90027052 300.31160472 442.24358065 315.12291477 436.59703541 329.93834591 C436.15567249 331.09638729 435.71430958 332.25442867 435.25957203 333.44756222 C434.82368763 334.59126278 434.38780323 335.73496334 433.93871021 336.9133215 C425.7440121 358.40744245 417.41945815 379.84929861 409.00957203 401.26006222 C400.1028973 399.69081099 391.43288729 397.29544109 382.72050953 394.90849972 C381.16546419 394.48508113 379.61033785 394.0619599 378.05513477 393.63912106 C373.9938081 392.5340546 369.93358287 391.42499443 365.8735857 390.31505489 C361.71775842 389.17969266 357.56088563 388.04817175 353.40410328 386.91631222 C345.27157376 384.70128761 337.14020557 382.48203624 329.00957203 380.26006222 C325.37478119 383.8415559 322.11158767 387.52745985 319.00957203 391.57256222 C314.90901647 396.85759737 310.74227536 402.08027269 306.50957203 407.26006222 C302.00224331 412.78233438 297.56172093 418.34975833 293.17583179 423.96880245 C289.65582086 428.4667003 286.06102674 432.89993832 282.44707203 437.32256222 C276.82993828 444.19898207 271.37544318 451.18631785 266.00957203 458.26006222 C262.60369832 455.13651835 261.1969097 451.45783011 259.48222828 447.24834347 C258.97044529 446.01782253 258.97044529 446.01782253 258.44832325 444.76244259 C257.31595797 442.0353044 256.19409477 439.30397001 255.07207203 436.57256222 C254.28089982 434.66201856 253.48897577 432.75178609 252.69633961 430.84184933 C251.01176699 426.78021838 249.3311322 422.71698863 247.65312672 418.65264034 C244.96513472 412.14634433 242.25900844 405.64768624 239.54863453 399.15068722 C239.09997532 398.07518108 238.65131611 396.99967495 238.18906116 395.89157772 C237.29585015 393.75058359 236.40259606 391.60960742 235.50929737 389.46864986 C233.03564194 383.53800933 230.56450878 377.6063133 228.09790516 371.67273617 C226.51885874 367.87540398 224.93706682 364.0796312 223.32841969 360.29473019 C222.86870777 359.20950069 222.40899586 358.1242712 221.93535328 357.00615597 C221.55419361 356.11468868 221.17303394 355.2232214 220.78032398 354.30473995 C220.00957203 352.26006222 220.00957203 352.26006222 220.00957203 350.26006222 C219.12898121 350.05977413 218.24839039 349.85948605 217.341115 349.65312862 C203.87336833 346.55316469 190.49251485 343.111829 177.11162281 339.65947628 C173.76305477 338.79587214 170.41270498 337.93938992 167.0619421 337.08434772 C163.83746827 336.2598832 160.61507644 335.42740184 157.39238453 334.59599972 C156.19251911 334.29076382 154.99265369 333.98552792 153.75642872 333.67104244 C152.09726933 333.24016827 152.09726933 333.24016827 150.40459156 332.80058956 C148.94595188 332.42563854 148.94595188 332.42563854 147.45784473 332.04311275 C145.00957203 331.26006222 145.00957203 331.26006222 142.00957203 329.26006222 C152.05717302 324.41440049 162.46793522 320.53766019 172.88457203 316.57256222 C175.54133492 315.55746463 178.19773163 314.54141346 180.85408497 313.52524471 C182.49542126 312.89777307 184.13706785 312.27111229 185.77907276 311.64539242 C186.52399982 311.36137066 187.26892689 311.0773489 188.0364275 310.78472042 C188.684977 310.53776928 189.3335265 310.29081814 190.00172901 310.03638363 C192.34550718 309.13017475 194.67701646 308.19473082 197.00957203 307.26006222 C195.45408744 307.25924507 195.45408744 307.25924507 193.86717892 307.25841141 C168.61934662 307.24400744 143.37168657 307.20095528 118.12395382 307.12797165 C105.91425681 307.09333832 93.70467251 307.06796828 81.49492359 307.06450558 C70.85123857 307.0614634 60.20775435 307.04093856 49.56414688 306.99953765 C43.92989799 306.97822927 38.29593445 306.96559608 32.66164494 306.97390842 C27.35424948 306.98146202 22.04743157 306.96557199 16.74014187 306.93200207 C14.79639036 306.92378466 12.85258125 306.92400006 10.90883541 306.933465 C-0.44203199 306.98324797 -9.36387724 306.86714361 -18.42792797 299.19756222 C-18.94355297 298.55818722 -19.45917797 297.91881222 -19.99042797 297.26006222 C-20.52667797 296.62068722 -21.06292797 295.98131222 -21.61542797 295.32256222 C-24.16561671 291.49727911 -25.23949447 288.03757095 -25.25049019 283.45606613 C-25.25755578 282.51176107 -25.26462137 281.56745601 -25.27190107 280.59453565 C-25.26948599 279.56536501 -25.2670709 278.53619438 -25.26458263 277.47583675 C-25.27243765 275.82617335 -25.27243765 275.82617335 -25.28045136 274.14318341 C-25.29547663 270.45074249 -25.29615708 266.75843984 -25.29682446 263.06597042 C-25.3044443 260.42138748 -25.31282261 257.77681621 -25.32204723 255.13223934 C-25.34488384 247.94201124 -25.35281654 240.75181269 -25.35787368 233.56155324 C-25.36113255 229.06967082 -25.36765623 224.57779696 -25.37487507 220.08591938 C-25.39444001 207.64282953 -25.41084459 195.19974761 -25.4137516 182.75664139 C-25.41393917 181.96057758 -25.41412674 181.16451376 -25.41432 180.34432681 C-25.41468624 178.73058903 -25.41504994 177.11685126 -25.41541111 175.50311349 C-25.41559392 174.70207893 -25.41577673 173.90104438 -25.41596508 173.07573605 C-25.41614563 172.27372067 -25.41632618 171.47170529 -25.4165122 170.64538642 C-25.42005259 157.6546673 -25.44706696 144.66411408 -25.48446297 131.67345247 C-25.5225726 118.32779056 -25.54190928 104.98221091 -25.54221112 91.63649338 C-25.54279512 84.14672451 -25.55125033 76.6571535 -25.58020878 69.16743565 C-25.6047584 62.78876739 -25.61198166 56.41036914 -25.59696125 50.03166638 C-25.58980644 46.77961314 -25.59332497 43.52820182 -25.61337185 40.27618694 C-25.63381884 36.74339693 -25.62328637 33.21197886 -25.60515881 29.67920589 C-25.61835877 28.66118887 -25.63155874 27.64317184 -25.64515871 26.59430581 C-25.56313412 19.57596155 -23.99808147 14.08988818 -19.99042797 8.26006222 C-13.96201581 2.52830148 -8.37140146 0.01319047 0 0 Z " fill="#EFC319" transform="translate(24.99042797088623,-0.26006221771240234)"/>
<path d="M0 0 C5.17317826 1.67276423 9.28102823 4.78832375 13.6875 7.875 C15.38887134 9.05013323 17.09070587 10.2245961 18.79296875 11.3984375 C19.65712402 11.99624023 20.5212793 12.59404297 21.41162109 13.20996094 C41.67328878 27.22227442 59.25981319 37.92841158 84.8046875 33.3125 C98.41298518 29.39644311 109.57032409 21.02698799 121 13 C123.89137932 10.97269629 126.78802285 8.95319906 129.6875 6.9375 C130.34645264 6.47255127 131.00540527 6.00760254 131.68432617 5.52856445 C135.02209928 3.2083788 138.11313772 1.31543905 142 0 C156.11806955 15.03109089 156.11806955 15.03109089 161.296875 21.046875 C163.49365905 23.56612276 165.74689619 26.03102996 168 28.5 C171.43264761 32.26350521 174.8155501 36.06129351 178.15625 39.90625 C180.40876457 42.46419027 182.70317092 44.9817898 185 47.5 C188.43264761 51.26350521 191.8155501 55.06129351 195.15625 58.90625 C198.25760235 62.4281247 201.43513333 65.88077022 204.59765625 69.34765625 C206.56941844 71.52460996 208.51365337 73.71838674 210.4375 75.9375 C213.39885235 79.34690566 216.44222954 82.67727775 219.5 86 C220.44423011 87.02974651 221.38824444 88.05969093 222.33203125 89.08984375 C223.97101075 90.87760324 225.61346028 92.66219806 227.26171875 94.44140625 C227.89722656 95.14136719 228.53273438 95.84132813 229.1875 96.5625 C229.73792969 97.16191406 230.28835938 97.76132813 230.85546875 98.37890625 C232 100 232 100 232 103 C177.96392932 124.24951421 177.96392932 124.24951421 153.14083862 133.91897583 C142.13118135 138.20820511 131.1293021 142.51697225 120.1328125 146.83984375 C119.49116402 147.09206318 118.84951553 147.34428261 118.18842316 147.60414505 C112.39513776 149.88144283 106.60199868 152.15911166 100.80981445 154.43920898 C97.24062765 155.84417389 93.67110906 157.24829317 90.1015625 158.65234375 C88.48279709 159.29018044 88.48279709 159.29018044 86.83132935 159.94090271 C85.34595169 160.52497643 85.34595169 160.52497643 83.83056641 161.12084961 C82.96605865 161.46119736 82.1015509 161.8015451 81.21084595 162.15220642 C76.60456393 163.91857839 72.65136864 164.15085532 67.77207947 164.15390015 C66.49862438 164.16047353 66.49862438 164.16047353 65.19944292 164.1671797 C62.34381585 164.18057475 59.48821964 164.18674821 56.63256836 164.19287109 C54.58926249 164.20077163 52.54595802 164.20904055 50.50265503 164.21765137 C43.78173151 164.24388148 37.06080174 164.25918201 30.33984375 164.2734375 C28.02613381 164.27879715 25.71242392 164.28417466 23.39871407 164.28956985 C13.77284122 164.31120181 4.14697007 164.32993767 -5.47892094 164.34119225 C-19.27183922 164.35742485 -33.0644755 164.39058258 -46.85728747 164.44759309 C-56.55593782 164.48631289 -66.25451282 164.50582749 -75.95323843 164.51111281 C-81.74510288 164.51476401 -87.53666662 164.5267608 -93.32844734 164.55921555 C-98.78107099 164.58933099 -104.23321252 164.59559536 -109.68590164 164.58383179 C-111.68290569 164.58361133 -113.67993233 164.59189299 -115.6768589 164.60948563 C-135.83866074 164.77738152 -135.83866074 164.77738152 -143 159 C-143.33 158.34 -143.66 157.68 -144 157 C-143.40614502 156.89888916 -142.81229004 156.79777832 -142.20043945 156.69360352 C-139.60279836 155.87479753 -138.61490206 154.90345591 -136.79296875 152.90234375 C-135.91838013 151.95331177 -135.91838013 151.95331177 -135.02612305 150.98510742 C-134.41937744 150.30939697 -133.81263184 149.63368652 -133.1875 148.9375 C-132.55948486 148.25083252 -131.93146973 147.56416504 -131.28442383 146.85668945 C-127.68359347 142.90761812 -124.11777992 138.92739875 -120.62890625 134.87890625 C-116.39028533 129.98975358 -112.00840736 125.22407526 -107.671875 120.421875 C-104.27655062 116.6569915 -100.88941658 112.88806449 -97.5625 109.0625 C-93.90942044 104.86696779 -90.15494451 100.76626447 -86.40625 96.65625 C-84.41351047 94.45647259 -82.4466186 92.24044782 -80.5 90 C-76.87055059 85.82270917 -73.1352098 81.74462761 -69.40625 77.65625 C-67.41351047 75.45647259 -65.4466186 73.24044782 -63.5 71 C-59.86934292 66.82131921 -56.13281424 62.74183696 -52.40234375 58.65234375 C-50.43058156 56.47539004 -48.48634663 54.28161326 -46.5625 52.0625 C-43.6011649 48.6531142 -40.55847514 45.3220569 -37.5 42 C-33.85585671 38.04137814 -30.26086283 34.0482324 -26.734375 29.984375 C-22.44320048 25.0746528 -18.04197892 20.26125182 -13.671875 15.421875 C-9.07008743 10.31921259 -4.50626246 5.18727319 0 0 Z " fill="#E47E25" transform="translate(152,142)"/>
<path d="M0 0 C-0.57280064 6.19714226 -2.49701545 11.46188936 -4.76953125 17.23046875 C-5.15730743 18.23244293 -5.54508362 19.23441711 -5.9446106 20.26675415 C-7.22715641 23.57633439 -8.5199257 26.88182506 -9.8125 30.1875 C-10.72092463 32.52728087 -11.62854464 34.86737429 -12.53540039 37.20776367 C-14.41984516 42.06910921 -16.30774509 46.92909097 -18.19824219 51.78808594 C-22.06181407 61.72464653 -25.88879053 71.67523156 -29.71310425 81.62695312 C-30.94663501 84.83626682 -32.18134155 88.0451262 -33.41625977 91.25390625 C-39.1093015 106.0515425 -44.76599138 120.86285255 -50.41253662 135.67828369 C-50.85389954 136.83632507 -51.29526245 137.99436646 -51.75 139.1875 C-52.1858844 140.33120056 -52.6217688 141.47490112 -53.07086182 142.65325928 C-61.26555993 164.14738024 -69.59011388 185.5892364 -78 207 C-86.90667473 205.43074878 -95.57668473 203.03537887 -104.2890625 200.6484375 C-105.84410784 200.22501892 -107.39923417 199.80189768 -108.95443726 199.37905884 C-113.01576392 198.27399238 -117.07598916 197.16493221 -121.13598633 196.05499268 C-125.29181361 194.91963044 -129.4486864 193.78810953 -133.60546875 192.65625 C-141.73799827 190.44122539 -149.86936646 188.22197402 -158 186 C-161.63479084 189.58149368 -164.89798436 193.26739763 -168 197.3125 C-172.10055556 202.59753515 -176.26729667 207.82021047 -180.5 213 C-185.00732872 218.52227216 -189.4478511 224.08969612 -193.83374023 229.70874023 C-197.35375116 234.20663809 -200.94854529 238.6398761 -204.5625 243.0625 C-210.17963375 249.93891986 -215.63412885 256.92625564 -221 264 C-224.40587371 260.87645613 -225.81266233 257.1977679 -227.52734375 252.98828125 C-227.86853241 252.16793396 -228.20972107 251.34758667 -228.56124878 250.50238037 C-229.69361406 247.77524219 -230.81547725 245.04390779 -231.9375 242.3125 C-232.72867221 240.40195634 -233.52059626 238.49172388 -234.31323242 236.58178711 C-235.99780504 232.52015616 -237.67843983 228.45692641 -239.35644531 224.39257812 C-242.04443731 217.88628211 -244.75056359 211.38762402 -247.4609375 204.890625 C-247.90959671 203.81511887 -248.35825592 202.73961273 -248.82051086 201.6315155 C-249.71372188 199.49052137 -250.60697596 197.3495452 -251.50027466 195.20858765 C-253.97393009 189.27794711 -256.44506325 183.34625108 -258.91166687 177.41267395 C-260.49071329 173.61534176 -262.0725052 169.81956898 -263.68115234 166.03466797 C-264.14086426 164.94943848 -264.60057617 163.86420898 -265.07421875 162.74609375 C-265.64595825 161.40889282 -265.64595825 161.40889282 -266.22924805 160.04467773 C-267 158 -267 158 -267 156 C-267.88059082 155.79971191 -268.76118164 155.59942383 -269.66845703 155.39306641 C-283.1362037 152.29310247 -296.51705718 148.85176678 -309.89794922 145.39941406 C-313.24651726 144.53580992 -316.59686705 143.6793277 -319.94762993 142.82428551 C-323.17210376 141.99982098 -326.39449559 141.16733963 -329.6171875 140.3359375 C-330.81705292 140.0307016 -332.01691833 139.7254657 -333.25314331 139.41098022 C-334.35924957 139.12373077 -335.46535583 138.83648132 -336.60498047 138.54052734 C-337.57740692 138.29056 -338.54983337 138.04059265 -339.55172729 137.78305054 C-342 137 -342 137 -345 135 C-335.95533964 130.65344944 -326.64353347 127.06515004 -317.27661133 123.48876953 C-314.70180017 122.50546117 -312.12908005 121.51683796 -309.55664062 120.52734375 C-302.41752185 117.78765494 -295.27655118 115.07263673 -288.0625 112.53515625 C-278.724077 109.23317992 -269.52882236 105.56286693 -260.3125 101.9375 C-258.29304824 101.14497972 -256.27351502 100.35266695 -254.25390625 99.56054688 C-250.00297434 97.8928918 -245.75251577 96.22403856 -241.50244141 94.55419922 C-235.08986991 92.03487596 -228.6759895 89.51889955 -222.26171875 87.00390625 C-221.21027679 86.59163788 -220.15883484 86.17936951 -219.07553101 85.75460815 C-216.94875359 84.92070826 -214.82197339 84.08681544 -212.69519043 83.25292969 C-209.49233388 81.99699389 -206.28960477 80.74073363 -203.08691406 79.484375 C-187.60511535 73.41139609 -172.11923215 67.34890635 -156.63150024 61.29107666 C-144.58648776 56.5797077 -132.5435125 51.86338169 -120.50976562 47.12329102 C-114.54538827 44.77649659 -108.57550636 42.44480704 -102.59922791 40.12850952 C-98.98376631 38.72709477 -95.36930684 37.32310306 -91.75479126 35.91925049 C-90.00383417 35.2401123 -88.252375 34.56226668 -86.50033569 33.88592529 C-77.17880418 30.28730394 -67.92582926 26.58047905 -58.7578125 22.60546875 C-48.22220762 18.03962569 -37.57048178 13.79930367 -26.87231445 9.63061523 C-23.74682022 8.41188944 -20.62431697 7.18570513 -17.50195312 5.95898438 C-15.50798318 5.17925088 -13.51384909 4.39993701 -11.51953125 3.62109375 C-10.58953812 3.25559921 -9.65954498 2.89010468 -8.70137024 2.51353455 C-7.84834824 2.18221024 -6.99532623 1.85088593 -6.11645508 1.50952148 C-5.36705154 1.21689926 -4.61764801 0.92427704 -3.84553528 0.62278748 C-2 0 -2 0 0 0 Z " fill="#7DCFFB" transform="translate(512,194)"/>
<path d="M0 0 C3.07759277 1.20052323 5.75806881 2.34860394 8.43359375 4.29296875 C9.07055176 4.75026367 9.70750977 5.20755859 10.36376953 5.67871094 C11.04810059 6.17661133 11.73243164 6.67451172 12.4375 7.1875 C19.10586773 11.96793266 25.83439421 16.64487653 32.625 21.25 C40.28445819 26.45147754 47.90734884 31.70148492 55.5 37 C62.9698393 42.21186762 70.46645825 47.38064044 78 52.5 C85.53354397 57.61936107 93.03004271 62.78829929 100.5 68 C110.72127692 75.12981626 121.00558368 82.16324336 131.31152344 89.16992188 C135.83808954 92.25120951 140.35661062 95.34423967 144.875 98.4375 C145.69645508 98.99977295 146.51791016 99.5620459 147.36425781 100.14135742 C149.24294924 101.42741006 151.1215382 102.713612 153 104 C149.90359893 108.24443249 146.88927802 112.37548298 143.0625 116 C139.83747692 119.13967275 136.84868064 122.39046017 133.9140625 125.80078125 C131.64845431 128.40391882 129.32696448 130.95158724 127 133.5 C124.15475772 136.61907011 121.3280042 139.74755391 118.5625 142.9375 C115.6011649 146.3468858 112.55847514 149.6779431 109.5 153 C105.85585671 156.95862186 102.26086283 160.9517676 98.734375 165.015625 C94.44320048 169.9253472 90.04197892 174.73874818 85.671875 179.578125 C82.27655062 183.3430085 78.88941658 187.11193551 75.5625 190.9375 C71.90942044 195.13303221 68.15494451 199.23373553 64.40625 203.34375 C62.41351047 205.54352741 60.4466186 207.75955218 58.5 210 C54.87055059 214.17729083 51.1352098 218.25537239 47.40625 222.34375 C45.41351047 224.54352741 43.4466186 226.75955218 41.5 229 C37.87055059 233.17729083 34.1352098 237.25537239 30.40625 241.34375 C27.85780603 244.15696737 25.36039727 247.00961465 22.87109375 249.875 C18.9727408 254.302357 14.97875949 258.64497955 11 263 C7.37308217 261.77682805 5.3736291 260.76862835 3.25 257.5625 C2.84265625 256.96566406 2.4353125 256.36882812 2.015625 255.75390625 C0.24823698 252.70176309 -0.12476701 250.15785037 -0.12304783 246.71089649 C-0.12503888 245.83059106 -0.12702993 244.95028562 -0.12908131 244.04330426 C-0.12616847 243.07541477 -0.12325563 242.10752527 -0.12025452 241.11030579 C-0.12110894 240.08277087 -0.12196337 239.05523595 -0.12284368 237.99656361 C-0.12449701 234.537161 -0.11897947 231.07780638 -0.11352539 227.6184082 C-0.11324346 225.14509075 -0.11340136 222.67177321 -0.1139679 220.19845581 C-0.11419596 214.86517527 -0.11135084 209.53190981 -0.10573006 204.19863319 C-0.09760859 196.48757893 -0.09499917 188.77653058 -0.09374207 181.06547251 C-0.09155257 168.55528236 -0.08489523 156.04509872 -0.07543945 143.53491211 C-0.06626271 131.38126661 -0.05918315 119.22762288 -0.05493164 107.07397461 C-0.05466892 106.32502689 -0.05440619 105.57607917 -0.05413551 104.80443607 C-0.05283049 101.04724609 -0.05156677 97.29005611 -0.05032361 93.53286612 C-0.03995417 62.35523934 -0.02226436 31.17762066 0 0 Z " fill="#F19B1F" transform="translate(0,37)"/>
<path d="M0 0 C0 60.72 0 121.44 0 184 C-13.86 189.28 -27.72 194.56 -42 200 C-47.61 202.31 -53.22 204.62 -59 207 C-62.48083243 205.25958378 -63.91313335 204.30392702 -66.42578125 201.5859375 C-67.05806641 200.90660156 -67.69035156 200.22726563 -68.34179688 199.52734375 C-69.31729492 198.46193359 -69.31729492 198.46193359 -70.3125 197.375 C-70.95123047 196.68792969 -71.58996094 196.00085938 -72.24804688 195.29296875 C-76.03737501 191.20034079 -79.73829542 187.03817142 -83.39916992 182.83056641 C-85.56436995 180.35463689 -87.77883953 177.92574104 -90 175.5 C-93.43264761 171.73649479 -96.8155501 167.93870649 -100.15625 164.09375 C-102.40876457 161.53580973 -104.70317092 159.0182102 -107 156.5 C-110.43264761 152.73649479 -113.8155501 148.93870649 -117.15625 145.09375 C-120.25760235 141.5718753 -123.43513333 138.11922978 -126.59765625 134.65234375 C-129.132526 131.85368268 -131.61331209 129.01363629 -134.0859375 126.16015625 C-137.4031791 122.41641216 -140.83563884 118.77644385 -144.25390625 115.125 C-147.43448259 111.61925663 -150.21499368 107.82248636 -153 104 C-152.12601562 103.40481567 -152.12601562 103.40481567 -151.234375 102.79760742 C-139.76401149 94.98500036 -128.30184342 87.1611625 -116.87255859 79.28857422 C-115.0061945 78.00426266 -113.13814195 76.72244649 -111.26953125 75.44140625 C-103.44825098 70.07709372 -95.65519617 64.67374126 -87.875 59.25 C-79.37905443 53.32866824 -70.84271373 47.47059319 -62.27758789 41.64990234 C-54.62166034 36.44023537 -47.01828108 31.1573171 -39.4230957 25.85961914 C-32.41744488 20.97634777 -25.3837039 16.13610321 -18.32568359 11.32885742 C-13.40655423 7.97587711 -8.53295421 4.57137098 -3.71484375 1.07421875 C-2 0 -2 0 0 0 Z " fill="#F19C1F" transform="translate(446,37)"/>
<path d="M0 0 C0.66 0.33 1.32 0.66 2 1 C-4.9758448 7.03098974 -11.95438847 13.03165847 -19.1875 18.75390625 C-28.22796384 25.97372112 -37.12526333 33.37883357 -45.9375 40.875 C-50.28636864 44.57414384 -54.69500845 48.18245016 -59.16796875 51.73046875 C-65.08569379 56.47281116 -70.91408867 61.32561957 -76.76220703 66.15332031 C-80.33911795 69.1050718 -83.91968331 72.05238133 -87.5 75 C-88.91668547 76.16664383 -90.33335211 77.33331053 -91.75 78.5 C-100.25 85.5 -100.25 85.5 -102.37597656 87.25073242 C-103.78948203 88.41484354 -105.20289384 89.5790684 -106.61621094 90.7434082 C-110.20547571 93.70012504 -113.79645822 96.65471204 -117.390625 99.60546875 C-123.9421619 104.987271 -130.47950768 110.38108818 -136.9375 115.875 C-141.28635274 119.5741605 -145.69500943 123.18245094 -150.16796875 126.73046875 C-153.82674401 129.66253554 -157.44514381 132.64207494 -161.0625 135.625 C-161.78832275 136.22328613 -162.51414551 136.82157227 -163.26196289 137.43798828 C-166.97205171 140.49784698 -170.67884761 143.56163815 -174.3828125 146.62890625 C-175.09663086 147.21792725 -175.81044922 147.80694824 -176.54589844 148.41381836 C-177.97125261 149.5943015 -179.3912226 150.78131663 -180.80566406 151.97485352 C-184.64464317 155.18818472 -188.47041524 158.07795762 -192.79150391 160.61474609 C-198.42532332 164.65056986 -201.53558693 167.70931508 -202.75941467 174.70986938 C-202.88263596 175.5648703 -203.00585724 176.41987122 -203.1328125 177.30078125 C-203.28515854 178.21362885 -203.43750458 179.12647644 -203.59446716 180.06698608 C-203.91823331 182.02748215 -204.23041104 183.98992106 -204.53201294 185.95394897 C-205.00060074 189.00391009 -205.49982929 192.0473946 -206.00756836 195.09106445 C-207.05848767 201.43065623 -208.06256993 207.77719961 -209.0625 214.125 C-209.40400223 216.27739052 -209.74579832 218.42973444 -210.08789062 220.58203125 C-210.25549896 221.63839783 -210.4231073 222.6947644 -210.59579468 223.78314209 C-210.9271535 225.87099483 -211.25903197 227.95876517 -211.59146118 230.04644775 C-212.36699895 234.93221328 -213.12580769 239.81921043 -213.84326172 244.71386719 C-213.97526474 245.59759003 -214.10726776 246.48131287 -214.24327087 247.39181519 C-214.48842337 249.03852789 -214.72706811 250.68622759 -214.95802307 252.33499146 C-215.77574937 257.77574937 -215.77574937 257.77574937 -218 260 C-228.53111595 235.35037641 -238.92428599 210.64820831 -249.15292358 185.87153625 C-251.17829516 180.97088462 -253.22371741 176.07924187 -255.2890625 171.1953125 C-255.76609619 170.06416016 -256.24312988 168.93300781 -256.73461914 167.76757812 C-257.58875468 165.74617112 -258.44698584 163.72648722 -259.31030273 161.70898438 C-259.85473022 160.41831055 -259.85473022 160.41831055 -260.41015625 159.1015625 C-260.72090088 158.37275879 -261.03164551 157.64395508 -261.35180664 156.89306641 C-262 155 -262 155 -262 152 C-261.38898438 151.71769531 -260.77796875 151.43539062 -260.1484375 151.14453125 C-250.07238251 146.30518653 -240.5878831 140.50350006 -230.99707031 134.78076172 C-226.05677893 131.84540123 -221.09124554 128.95366288 -216.125 126.0625 C-214.62984863 125.19141602 -214.62984863 125.19141602 -213.10449219 124.30273438 C-211.08052118 123.12365889 -209.05643248 121.94478542 -207.03222656 120.76611328 C-202.01994187 117.84671977 -197.01008684 114.92316314 -192 112 C-190.00001181 110.83331309 -188.0000118 109.66664643 -186 108.5 C-185.01 107.9225 -184.02 107.345 -183 106.75 C-130.7890625 76.29361979 -78.578125 45.83723958 -26.3671875 15.38085938 C-25.33851563 14.78080078 -24.30984375 14.18074219 -23.25 13.5625 C-17.578125 10.25390625 -17.578125 10.25390625 -14.84570312 8.66845703 C-12.78780871 7.46189814 -10.74093631 6.23647366 -8.70117188 4.99951172 C-7.61900391 4.34869629 -6.53683594 3.69788086 -5.421875 3.02734375 C-4.4328418 2.425271 -3.44380859 1.82319824 -2.42480469 1.20288086 C-1.62461914 0.80593018 -0.82443359 0.40897949 0 0 Z " fill="#285680" transform="translate(507,197)"/>
<path d="M0 0 C-3.04393515 2.39169546 -6.19596076 4.32986659 -9.56640625 6.23046875 C-11.23340576 7.17515015 -11.23340576 7.17515015 -12.93408203 8.13891602 C-13.52433167 8.47206818 -14.1145813 8.80522034 -14.72271729 9.14846802 C-25.09297656 15.00515477 -35.39342177 20.96634103 -45.625 27.0625 C-55.51733641 32.95346615 -65.45690112 38.75409668 -75.4375 44.49414062 C-85.66139385 50.37442866 -95.84933435 56.31518138 -106.03222656 62.26611328 C-111.01990957 65.1801084 -116.01008705 68.08982568 -121 71 C-123.0000118 72.16664643 -125.00001181 73.33331309 -127 74.5 C-169 99 -169 99 -211 123.5 C-212.48693359 124.3674585 -212.48693359 124.3674585 -214.00390625 125.25244141 C-215.9906963 126.41129434 -217.97767349 127.5698265 -219.96484375 128.72802734 C-225.16858853 131.76155071 -230.36832713 134.80167435 -235.5625 137.8515625 C-236.64015625 138.48320312 -237.7178125 139.11484375 -238.828125 139.765625 C-240.88142389 140.96928297 -242.9335843 142.17488604 -244.984375 143.3828125 C-246.82704077 144.46194273 -248.67960229 145.52440409 -250.54296875 146.56738281 C-252.96116447 147.90897117 -252.96116447 147.90897117 -254.86328125 149.42480469 C-258.12772285 151.69218014 -260.24564966 152.08936555 -264.22314453 151.61816406 C-267.91754827 150.84301429 -271.53903844 149.81623204 -275.16906738 148.7857666 C-279.57316955 147.56334387 -284.00861653 146.46916857 -288.44134521 145.355896 C-292.94032347 144.22257221 -297.4334351 143.06714991 -301.92583847 141.90813828 C-305.93173781 140.87477948 -309.93904827 139.84718882 -313.94762993 138.82428551 C-317.17210376 137.99982098 -320.39449559 137.16733963 -323.6171875 136.3359375 C-324.81705292 136.0307016 -326.01691833 135.7254657 -327.25314331 135.41098022 C-328.35924957 135.12373077 -329.46535583 134.83648132 -330.60498047 134.54052734 C-331.57740692 134.29056 -332.54983337 134.04059265 -333.55172729 133.78305054 C-336 133 -336 133 -339 131 C-329.95533964 126.65344944 -320.64353347 123.06515004 -311.27661133 119.48876953 C-308.70180017 118.50546117 -306.12908005 117.51683796 -303.55664062 116.52734375 C-296.41752185 113.78765494 -289.27655118 111.07263673 -282.0625 108.53515625 C-272.724077 105.23317992 -263.52882236 101.56286693 -254.3125 97.9375 C-252.29304824 97.14497972 -250.27351502 96.35266695 -248.25390625 95.56054688 C-244.00297434 93.8928918 -239.75251577 92.22403856 -235.50244141 90.55419922 C-229.08986991 88.03487596 -222.6759895 85.51889955 -216.26171875 83.00390625 C-215.21027679 82.59163788 -214.15883484 82.17936951 -213.07553101 81.75460815 C-210.94875359 80.92070826 -208.82197339 80.08681544 -206.69519043 79.25292969 C-203.49233388 77.99699389 -200.28960477 76.74073363 -197.08691406 75.484375 C-181.60511535 69.41139609 -166.11923215 63.34890635 -150.63150024 57.29107666 C-138.58648776 52.5797077 -126.5435125 47.86338169 -114.50976562 43.12329102 C-107.65728106 40.42705441 -100.79584907 37.75493021 -93.9296875 35.09375 C-73.02303554 27.08229711 -73.02303554 27.08229711 -52.375 18.4375 C-43.0547602 14.33128686 -33.58086992 10.61896181 -24.08917236 6.93093872 C-22.28775152 6.2301026 -20.48756366 5.52608849 -18.68865967 4.81881714 C-16.15802875 3.82532694 -13.62283813 2.84453813 -11.0859375 1.8671875 C-10.31507813 1.5625206 -9.54421875 1.2578537 -8.75 0.94395447 C-3.34338833 -1.11446278 -3.34338833 -1.11446278 0 0 Z " fill="#7ECFFA" transform="translate(506,198)"/>
<path d="M0 0 C2.5 1.5 2.5 1.5 4 4 C4.67764469 7.38822347 4.92355869 8.81430706 4 12 C-0.0933641 17.99297918 -6.67214047 22.18871413 -12.36499023 26.5769043 C-16.94017255 30.11373019 -21.33750626 33.81549534 -25.6875 37.625 C-30.80159558 42.10301729 -35.97509237 46.47833892 -41.2578125 50.7578125 C-44.37000148 53.30253683 -47.43726497 55.89618225 -50.5 58.5 C-55.35305925 62.62417502 -60.25813293 66.67665804 -65.19921875 70.6953125 C-68.26775891 73.2203316 -71.29036484 75.79488551 -74.3125 78.375 C-79.32846945 82.65150717 -84.46319598 86.74411977 -89.67211914 90.78222656 C-94.77410198 94.76335706 -99.68534322 98.94761455 -104.55834961 103.20483398 C-108.92618135 107.00767889 -111.08100212 108.38837996 -117.0234375 108.26953125 C-119 108 -119 108 -121.5 106.5 C-123.18959029 103.68401619 -123.5184812 101.36493864 -123.62890625 98.09765625 C-121.98742274 92.62264602 -115.14572445 88.42714394 -110.875 84.75 C-109.88258301 83.89293457 -109.88258301 83.89293457 -108.87011719 83.01855469 C-103.32593499 78.24685651 -97.69015465 73.59655135 -92 69 C-85.55296013 63.76296175 -79.16573164 58.46457091 -72.83642578 53.08642578 C-68.53888375 49.44045068 -64.18342199 45.8702272 -59.8125 42.3125 C-56.68200334 39.73853608 -53.58827539 37.12430914 -50.5 34.5 C-45.64961937 30.37831505 -40.74816997 26.32724991 -35.80859375 22.3125 C-33.25108057 20.20673115 -30.72833933 18.06765317 -28.21362305 15.91137695 C-25.49350201 13.58622247 -22.74820818 11.29181814 -20 9 C-19.46665039 8.54963379 -18.93330078 8.09926758 -18.38378906 7.63525391 C-7.24859979 -1.68271066 -7.24859979 -1.68271066 0 0 Z " fill="#FF5263" transform="translate(231,404)"/>
<path d="M0 0 C0.66 0.66 1.32 1.32 2 2 C3.83914967 2.6547712 3.83914967 2.6547712 5.97265625 3.11328125 C7.18646973 3.40368286 7.18646973 3.40368286 8.42480469 3.69995117 C9.29524414 3.90209229 10.16568359 4.1042334 11.0625 4.3125 C18.5325672 6.10717758 25.9151882 8.06644601 33.26586914 10.30004883 C37.81682735 11.67824071 42.38134155 12.87612644 47 14 C45.43341429 19.25266973 42.04549559 22.84563749 38.5625 26.9375 C37.28256632 28.46506768 36.00393552 29.99372791 34.7265625 31.5234375 C34.09266602 32.28108398 33.45876953 33.03873047 32.80566406 33.81933594 C30.29133705 36.85583794 27.85664182 39.94998221 25.4375 43.0625 C21.51900662 48.09249953 17.53189653 53.06043924 13.5 58 C8.05120794 64.67975906 2.69663702 71.42683114 -2.60888672 78.22070312 C-5.1287776 81.44375766 -7.65889317 84.65878237 -10.1875 87.875 C-11.1185308 89.05986345 -12.0495244 90.24475613 -12.98046875 91.4296875 C-13.98013672 92.70199219 -13.98013672 92.70199219 -15 94 C-16.31603266 90.05190203 -15.50525534 86.84692684 -14.8125 82.84765625 C-14.60568855 81.60018616 -14.60568855 81.60018616 -14.3946991 80.32751465 C-13.93645426 77.57135223 -13.46827113 74.81697517 -13 72.0625 C-12.34753908 68.16711948 -11.6994392 64.27101531 -11.05078125 60.375 C-10.79824333 58.86529381 -10.79824333 58.86529381 -10.54060364 57.3250885 C-9.32864573 50.05696977 -8.17172603 42.78147081 -7.04296875 35.5 C-6.88619659 34.49319687 -6.72942444 33.48639374 -6.56790161 32.44908142 C-5.64994991 26.55311099 -5.64994991 26.55311099 -4.74389648 20.65530396 C-4.32866691 17.93721703 -3.905356 15.22049762 -3.48046875 12.50390625 C-3.35987595 11.69852417 -3.23928314 10.89314209 -3.11503601 10.06335449 C-2.53526587 6.39995565 -1.96811625 3.18488546 0 0 Z " fill="#34ABEE" transform="translate(306,364)"/>
<path d="M0 0 C2.61973836 1.65916763 2.94752555 2.83133214 3.875 5.8125 C4.03667752 9.93527686 3.31124447 11.56815216 1 15 C-0.70765418 16.68934154 -2.50453975 18.21062102 -4.35546875 19.7421875 C-8.53742027 23.31259811 -12.48441291 27.13586661 -16.45605469 30.9375 C-26.65970828 40.57874749 -26.65970828 40.57874749 -32.125 41.5625 C-35.81264192 40.84100484 -37.45644123 39.76157809 -40 37 C-41.15079761 33.61953202 -41.36035291 31.87836021 -40 28.5625 C-35.74289723 23.10808707 -30.62065902 18.59904812 -25.38671875 14.10546875 C-23.46128668 12.40692884 -21.57867416 10.68247537 -19.70703125 8.92578125 C-19.12711426 8.38268311 -18.54719727 7.83958496 -17.94970703 7.2800293 C-16.78945474 6.19034375 -15.63277223 5.09684269 -14.47998047 3.99926758 C-9.44128666 -0.72365597 -6.78015513 -1.45289039 0 0 Z " fill="#34ABEF" transform="translate(242,454)"/>
</svg>
