<?xml version="1.0" encoding="UTF-8"?>
<svg version="1.1" xmlns="http://www.w3.org/2000/svg" width="225" height="225">
<path d="M0 0 C1.03769531 0.350625 2.07539063 0.70125 3.14453125 1.0625 C25.28962266 9.42132874 43.93891955 27.23381401 53.73046875 48.67578125 C63.89306737 72.15457136 63.86928269 97.59965541 54.6875 121.375 C44.73471508 143.54944179 27.09224288 160.28615828 4.89453125 169.90625 C-17.50761319 178.37129783 -41.07181481 178.43498302 -63.375 169.6875 C-86.42489955 159.19297902 -103.44429415 142.55889595 -113 119 C-121.80726537 95.44096571 -121.38312978 71.02346169 -111 48 C-106.75023716 38.99050277 -101.64605137 31.41106448 -95 24 C-94.44828125 23.36578125 -93.8965625 22.7315625 -93.328125 22.078125 C-70.4649858 -2.59595591 -31.34711534 -10.86604682 0 0 Z " fill="#7888A2" transform="translate(142,27)"/>
<path d="M0 0 C13.57206873 1.77994344 26.95212445 16.64809556 35 27 C49.69567669 47.87454075 55.59246069 72.59244749 51.2734375 97.90234375 C46.57436069 120.84681891 33.24113539 141.81525795 13.86328125 155.16015625 C-7.70895278 168.81831626 -32.26336709 174.9488887 -57.5 169.3125 C-67.87105071 166.82191655 -77.13900656 162.9641302 -86 157 C-84 156 -84 156 -82.046875 156.5234375 C-81.28890625 156.80445313 -80.5309375 157.08546875 -79.75 157.375 C-59.69780787 164.77356744 -35.59355148 160.28326646 -16.66137695 151.84716797 C-5.49091589 146.56779695 5.74553612 138.09316713 13 128 C11.576875 127.62875 11.576875 127.62875 10.125 127.25 C7 126 7 126 5.828125 124.3671875 C3.1498485 116.7113594 4.20746684 106.54817373 7.5859375 99.29296875 C10.4047207 94.72217941 14.10580396 89.44709802 19 87 C24.3495935 86.49051491 24.3495935 86.49051491 27 87 C29 89.5 29 89.5 30 92 C31.67110042 89.03821227 32.32682752 86.62928808 32.625 83.25 C32.73714844 82.05117187 32.73714844 82.05117187 32.8515625 80.828125 C32.90054688 80.22484375 32.94953125 79.6215625 33 79 C33.66 79 34.32 79 35 79 C35 74.05 35 69.1 35 64 C34.34 63.67 33.68 63.34 33 63 C32.92588801 60.40608041 32.93815733 58.22370249 33.6328125 55.7109375 C34.7098774 47.75899027 28.51912718 38.74527169 24.38671875 32.25 C23.15998437 30.25958028 22.19602487 28.31938704 21.25 26.1875 C16.79094505 17.08436708 9.96064098 8.97137229 1.6171875 3.26953125 C1.08351563 2.85058594 0.54984375 2.43164062 0 2 C0 1.34 0 0.68 0 0 Z " fill="#465E7A" transform="translate(151,32)"/>
<path d="M0 0 C2.8125 2.4375 2.8125 2.4375 5 5 C5.33 5.33 5.66 5.66 6 6 C6.86884606 12.50922377 5.75247996 17.62261438 2 23 C-0.26833595 25.84059092 -2.55231345 27.68795449 -6.2109375 28.4765625 C-10.28015634 28.73342349 -12.51514935 28.28695242 -16.0625 26.1875 C-18.94576475 21.44406444 -19.04102254 17.40445747 -18 12 C-15.89617994 7.20357747 -13.31331725 3.90290561 -9 0.9375 C-5.64343515 -0.11142651 -3.48204356 -0.59268826 0 0 Z " fill="#445D7A" transform="translate(82,63)"/>
<path d="M0 0 C5.72727273 3.18181818 5.72727273 3.18181818 7 7 C7.494097 11.10100506 7.95235971 15.2232095 5.953125 18.953125 C3.55779756 21.85569826 1.60430818 23.79801875 -2.171875 24.2734375 C-9.98876369 24.58137554 -9.98876369 24.58137554 -13.5625 21.625 C-16.74845215 18.1939746 -17.15366957 16.68534258 -17.1875 12.125 C-17.20167969 11.26132813 -17.21585937 10.39765625 -17.23046875 9.5078125 C-16.98054406 6.78829302 -16.51291528 5.26452384 -15 3 C-10.21375329 -0.66395438 -5.85071005 -1.73354372 0 0 Z " fill="#445D7A" transform="translate(121,101)"/>
<path d="M0 0 C1.32 0 2.64 0 4 0 C3.11396922 7.59454954 3.11396922 7.59454954 2.49511719 9.79614258 C-0.38105295 22.59850343 1.03437027 37.96498137 6 50 C6.43778211 51.43121074 6.85836205 52.86798033 7.25 54.3125 C7.62125 55.6428125 7.62125 55.6428125 8 57 C5.525 57.495 5.525 57.495 3 58 C2.01388849 55.46083825 1.03599124 52.9189977 0.0625 50.375 C-0.21529297 49.66214844 -0.49308594 48.94929688 -0.77929688 48.21484375 C-3.82807251 40.20721618 -4.20796682 32.82947353 -4.25 24.3125 C-4.270625 23.28705078 -4.29125 22.26160156 -4.3125 21.20507812 C-4.34849217 14.0831266 -3.41895963 7.72347134 -1 1 C-0.67 0.67 -0.34 0.34 0 0 Z " fill="#A4B1C1" transform="translate(36,86)"/>
<path d="M0 0 C2.87231794 2.09601579 3.8338544 3.49048682 4.9375 6.875 C5.0154753 10.7737648 4.13513938 12.76047819 2 16 C-0.68258926 18.20355547 -2.03823987 17.99798738 -5.5625 17.8125 C-8.89475039 17.02487718 -10.05370761 16.70318387 -12 14 C-13.59745879 10.80508241 -13.50816842 7.46790611 -13 4 C-9.343307 -0.91762162 -5.77832349 -1.5330246 0 0 Z " fill="#455D7A" transform="translate(146,55)"/>
<path d="M0 0 C8.42071545 0.98620992 14.99231208 8.49716179 20.25 14.6875 C25.64490926 21.78080661 33.80688876 33.81385283 32.625 42.875 C32.41875 43.57625 32.2125 44.2775 32 45 C31.01 45 30.02 45 29 45 C28.61070312 43.85144531 28.22140625 42.70289063 27.8203125 41.51953125 C22.32430319 26.00030277 14.07810086 12.01024108 -1 4 C-0.67 2.68 -0.34 1.36 0 0 Z " fill="#A3B1C2" transform="translate(153,45)"/>
<path d="M0 0 C2.5 1.5 2.5 1.5 4 4 C4.79710231 8.05193677 4.68780769 10.96828847 2.375 14.4375 C-0.5659132 16.37231132 -2.47650456 16.92809193 -6 17 C-8.86332091 15.76356597 -10.49288133 14.66847461 -12.375 12.1875 C-13.26089715 9.08685996 -12.89945179 7.08383471 -12 4 C-8.94535569 -0.64305935 -5.16474221 -1.01601486 0 0 Z " fill="#455D7A" transform="translate(80,143)"/>
<path d="M0 0 C2.63302895 0.37452567 3.75874634 0.73100217 5.5625 2.7421875 C6.036875 3.44601563 6.51125 4.14984375 7 4.875 C9.04895972 7.89276133 10.9825413 9.93200028 14 12 C13.67 13.32 13.34 14.64 13 16 C8.75354226 15.51002411 5.85977443 12.98941754 3 10 C1.30885528 7.69802391 0.21579834 5.62612442 -1 3 C-0.67 2.01 -0.34 1.02 0 0 Z " fill="#A4B0C3" transform="translate(46,152)"/>
<path d="M0 0 C0.94875 0.04125 1.8975 0.0825 2.875 0.125 C4.25625018 2.88750036 4.06579306 5.07231099 3.875 8.125 C3.215 8.785 2.555 9.445 1.875 10.125 C-3.69318182 9.55681818 -3.69318182 9.55681818 -5.125 8.125 C-5.3125 5.1875 -5.3125 5.1875 -5.125 2.125 C-3.125 0.125 -3.125 0.125 0 0 Z " fill="#60718B" transform="translate(117.125,37.875)"/>
<path d="M0 0 C2.0625 0.4375 2.0625 0.4375 4 1 C4.02693575 3.12493141 4.04636628 5.24995912 4.0625 7.375 C4.07410156 8.55835937 4.08570313 9.74171875 4.09765625 10.9609375 C4 14 4 14 3 16 C1.68 15.67 0.36 15.34 -1 15 C-1.02685412 12.68756208 -1.04632841 10.3750373 -1.0625 8.0625 C-1.07410156 6.77472656 -1.08570313 5.48695312 -1.09765625 4.16015625 C-1 1 -1 1 0 0 Z " fill="#A2B2C2" transform="translate(183,95)"/>
<path d="M0 0 C1.66611905 -0.042721 3.33382885 -0.04063832 5 0 C6 1 6 1 6.0625 4.0625 C6.041875 5.031875 6.02125 6.00125 6 7 C3.6875 7.6875 3.6875 7.6875 1 8 C-0.8125 6.5625 -0.8125 6.5625 -2 5 C-1.34 3.35 -0.68 1.7 0 0 Z " fill="#62728C" transform="translate(69,107)"/>
<path d="M0 0 C1.73017508 0.45451184 3.45909877 0.91378857 5.1875 1.375 C6.15042969 1.63023437 7.11335938 1.88546875 8.10546875 2.1484375 C10.82210207 2.94766296 13.39137175 3.9031362 16 5 C16 6.32 16 7.64 16 9 C10.59811177 7.4763905 5.685004 5.07730789 1 2 C0.67 1.34 0.34 0.68 0 0 Z " fill="#4E617A" transform="translate(65,188)"/>
<path d="M0 0 C1.98 0 3.96 0 6 0 C6 1.98 6 3.96 6 6 C3.625 6.625 3.625 6.625 1 7 C0.34 6.34 -0.32 5.68 -1 5 C-0.625 2.375 -0.625 2.375 0 0 Z " fill="#61718B" transform="translate(125,162)"/>
<path d="M0 0 C1 3 1 3 0.0390625 4.9375 C-0.42757812 5.618125 -0.89421875 6.29875 -1.375 7 C-3.01817963 9.42346046 -4.06299198 11.18897593 -5 14 C-7.5625 15.1875 -7.5625 15.1875 -10 16 C-7.25339075 10.08422624 -4.06532334 5.09520525 0 0 Z " fill="#8892A4" transform="translate(44,54)"/>
<path d="M0 0 C2.29326361 2.29326361 2.7940077 3.86660021 3.75 6.9375 C4.03359375 7.81277344 4.3171875 8.68804687 4.609375 9.58984375 C5 12 5 12 3 15 C3 13.02 3 11.04 3 9 C2.01 9.33 1.02 9.66 0 10 C-0.19412181 8.52168779 -0.38012131 7.04230684 -0.5625 5.5625 C-0.66691406 4.73878906 -0.77132812 3.91507812 -0.87890625 3.06640625 C-0.91886719 2.38449219 -0.95882812 1.70257813 -1 1 C-0.67 0.67 -0.34 0.34 0 0 Z " fill="#546780" transform="translate(194,74)"/>
<path d="M0 0 C1.65 0.33 3.3 0.66 5 1 C4.67 2.65 4.34 4.3 4 6 C2.35 5.67 0.7 5.34 -1 5 C-0.67 3.35 -0.34 1.7 0 0 Z " fill="#61718B" transform="translate(111,55)"/>
<path d="M0 0 C0 3.99904969 -1.72586967 5.80200422 -4 9 C-5.32 8.34 -6.64 7.68 -8 7 C-5.42215154 4.35247996 -3.08351902 2.05567935 0 0 Z " fill="#8691A4" transform="translate(65,36)"/>
<path d="M0 0 C0.99 0.33 1.98 0.66 3 1 C2.67 2.65 2.34 4.3 2 6 C1.01 5.67 0.02 5.34 -1 5 C-0.67 3.35 -0.34 1.7 0 0 Z " fill="#62728C" transform="translate(115,161)"/>
<path d="M0 0 C0.94875 0.350625 1.8975 0.70125 2.875 1.0625 C5.87060172 2.35026777 5.87060172 2.35026777 8 1 C8 2.32 8 3.64 8 5 C2.25 3.125 2.25 3.125 0 2 C0 1.34 0 0.68 0 0 Z " fill="#56687E" transform="translate(73,192)"/>
<path d="M0 0 C3.16115776 1.36983503 3.9927092 1.9890638 6 5 C4.68 5 3.36 5 2 5 C1.34 3.35 0.68 1.7 0 0 Z " fill="#58697D" transform="translate(169,43)"/>
<path d="M0 0 C4.75 0.75 4.75 0.75 7 3 C6.01 3.66 5.02 4.32 4 5 C2 3.625 2 3.625 0 2 C0 1.34 0 0.68 0 0 Z " fill="#607085" transform="translate(151,32)"/>
<path d="M0 0 C0.598125 0.20625 1.19625 0.4125 1.8125 0.625 C0.8225 2.11 0.8225 2.11 -0.1875 3.625 C-2.6625 2.635 -2.6625 2.635 -5.1875 1.625 C-2.1875 -0.375 -2.1875 -0.375 0 0 Z " fill="#8692A3" transform="translate(89.1875,26.375)"/>
<path d="" fill="#FFFFFF" transform="translate(0,0)"/>
<path d="" fill="#FFFFFF" transform="translate(0,0)"/>
<path d="" fill="#FFFFFF" transform="translate(0,0)"/>
<path d="" fill="#FFFFFF" transform="translate(0,0)"/>
<path d="" fill="#FFFFFF" transform="translate(0,0)"/>
<path d="" fill="#FFFFFF" transform="translate(0,0)"/>
<path d="" fill="#FFFFFF" transform="translate(0,0)"/>
<path d="" fill="#FFFFFF" transform="translate(0,0)"/>
<path d="" fill="#FFFFFF" transform="translate(0,0)"/>
<path d="" fill="#FFFFFF" transform="translate(0,0)"/>
<path d="" fill="#FFFFFF" transform="translate(0,0)"/>
<path d="" fill="#FFFFFF" transform="translate(0,0)"/>
<path d="" fill="#FFFFFF" transform="translate(0,0)"/>
<path d="" fill="#FFFFFF" transform="translate(0,0)"/>
<path d="" fill="#FFFFFF" transform="translate(0,0)"/>
<path d="" fill="#FFFFFF" transform="translate(0,0)"/>
<path d="" fill="#FFFFFF" transform="translate(0,0)"/>
<path d="" fill="#FFFFFF" transform="translate(0,0)"/>
<path d="" fill="#FFFFFF" transform="translate(0,0)"/>
<path d="" fill="#FFFFFF" transform="translate(0,0)"/>
<path d="" fill="#FFFFFF" transform="translate(0,0)"/>
<path d="" fill="#FFFFFF" transform="translate(0,0)"/>
<path d="" fill="#FFFFFF" transform="translate(0,0)"/>
<path d="" fill="#FFFFFF" transform="translate(0,0)"/>
<path d="" fill="#FFFFFF" transform="translate(0,0)"/>
<path d="" fill="#FFFFFF" transform="translate(0,0)"/>
<path d="" fill="#FFFFFF" transform="translate(0,0)"/>
<path d="" fill="#FFFFFF" transform="translate(0,0)"/>
<path d="" fill="#FFFFFF" transform="translate(0,0)"/>
<path d="" fill="#FFFFFF" transform="translate(0,0)"/>
<path d="" fill="#FFFFFF" transform="translate(0,0)"/>
<path d="" fill="#FFFFFF" transform="translate(0,0)"/>
<path d="" fill="#FFFFFF" transform="translate(0,0)"/>
<path d="" fill="#FFFFFF" transform="translate(0,0)"/>
<path d="" fill="#FFFFFF" transform="translate(0,0)"/>
<path d="" fill="#FFFFFF" transform="translate(0,0)"/>
<path d="" fill="#FFFFFF" transform="translate(0,0)"/>
<path d="" fill="#FFFFFF" transform="translate(0,0)"/>
<path d="" fill="#FFFFFF" transform="translate(0,0)"/>
<path d="" fill="#FFFFFF" transform="translate(0,0)"/>
<path d="" fill="#FFFFFF" transform="translate(0,0)"/>
<path d="" fill="#FFFFFF" transform="translate(0,0)"/>
<path d="" fill="#FFFFFF" transform="translate(0,0)"/>
<path d="" fill="#FFFFFF" transform="translate(0,0)"/>
<path d="" fill="#FFFFFF" transform="translate(0,0)"/>
<path d="" fill="#FFFFFF" transform="translate(0,0)"/>
<path d="" fill="#FFFFFF" transform="translate(0,0)"/>
<path d="" fill="#FFFFFF" transform="translate(0,0)"/>
<path d="" fill="#FFFFFF" transform="translate(0,0)"/>
<path d="" fill="#FFFFFF" transform="translate(0,0)"/>
</svg>
