<?xml version="1.0" encoding="UTF-8"?>
<svg version="1.1" xmlns="http://www.w3.org/2000/svg" width="512" height="512">
<path d="M0 0 C1.21081553 -0.00311998 2.42163105 -0.00623996 3.66913795 -0.00945449 C6.98542611 -0.01598876 10.30148337 -0.01372268 13.61775684 -0.00748205 C17.2115484 -0.00291781 20.80532118 -0.00996082 24.39910889 -0.01544189 C31.42175002 -0.02429553 38.44434819 -0.02243195 45.46699095 -0.01661661 C51.17878284 -0.01208418 56.89056277 -0.01149403 62.60235596 -0.01366425 C63.82570788 -0.01412394 63.82570788 -0.01412394 65.07377398 -0.01459293 C66.73102427 -0.01523244 68.38827455 -0.01588086 70.04552484 -0.01653811 C85.55458059 -0.0222296 101.06361263 -0.0157021 116.5726645 -0.00493738 C129.85558377 0.00399705 143.13846808 0.00244468 156.42138672 -0.0067749 C171.87817395 -0.01749846 187.33494045 -0.02168039 202.79173088 -0.01555037 C204.44259516 -0.01491333 206.09345944 -0.01428459 207.74432373 -0.01366425 C208.96243899 -0.01320142 208.96243899 -0.01320142 210.20516264 -0.01272924 C215.90446005 -0.01100855 221.6037442 -0.01390385 227.30303955 -0.01862335 C234.25663095 -0.02425541 241.21017724 -0.02266714 248.16376352 -0.01206186 C251.7057865 -0.00683627 255.2477345 -0.00469472 258.78975677 -0.01136017 C262.64210603 -0.0184995 266.49433478 -0.00992657 270.34667969 0 C271.99876655 -0.00669217 271.99876655 -0.00669217 273.6842289 -0.01351953 C284.43849792 0.03988183 295.22800424 1.25402708 305.54833984 4.37896729 C306.2525708 4.5914209 306.95680176 4.80387451 307.68237305 5.02276611 C335.67306102 13.9182573 358.0183544 34.11369936 371.42333984 60.00396729 C374.13091673 65.47993576 376.28820792 71.03061419 378.04833984 76.87896729 C378.23944336 77.51028564 378.43054688 78.141604 378.62744141 78.79205322 C381.64569641 89.66544014 382.47281668 100.84573953 382.42730713 112.08062744 C382.43042711 113.29144297 382.43354709 114.50225849 382.43676162 115.7497654 C382.44329589 119.06605355 382.44102981 122.38211081 382.43478918 125.69838428 C382.43022494 129.29217584 382.43726795 132.88594862 382.44274902 136.47973633 C382.45160266 143.50237746 382.44973908 150.52497563 382.44392374 157.54761839 C382.4393913 163.25941029 382.43880116 168.97119022 382.44097137 174.6829834 C382.44127784 175.49855135 382.44158431 176.31411929 382.44190006 177.15440142 C382.44253957 178.81165171 382.44318799 180.468902 382.44384524 182.12615228 C382.44953673 197.63520803 382.44300923 213.14424008 382.43224451 228.65329194 C382.42331008 241.93621121 382.42486245 255.21909552 382.43408203 268.50201416 C382.44480559 283.95880139 382.44898752 299.41556789 382.4428575 314.87235832 C382.44222046 316.5232226 382.44159172 318.17408689 382.44097137 319.82495117 C382.44066282 320.63702801 382.44035427 321.44910486 382.44003637 322.28579009 C382.43831568 327.98508749 382.44121098 333.68437164 382.44593048 339.38366699 C382.45156254 346.33725839 382.44997427 353.29080468 382.43936899 360.24439096 C382.4341434 363.78641394 382.43200185 367.32836194 382.4386673 370.87038422 C382.44580663 374.72273347 382.4372337 378.57496222 382.42730713 382.42730713 C382.43176857 383.52869837 382.43623002 384.63008961 382.44082665 385.76485634 C382.3874253 396.51912536 381.17328005 407.30863168 378.04833984 417.62896729 C377.83588623 418.33319824 377.62343262 419.0374292 377.40454102 419.76300049 C368.50904983 447.75368846 348.31360777 470.09898185 322.42333984 483.50396729 C316.94737136 486.21154417 311.39669294 488.36883536 305.54833984 490.12896729 C304.91702148 490.3200708 304.28570312 490.51117432 303.63525391 490.70806885 C292.76186699 493.72632386 281.5815676 494.55344412 270.34667969 494.50793457 C269.13586416 494.51105455 267.92504864 494.51417453 266.67754173 494.51738906 C263.36125358 494.52392333 260.04519632 494.52165725 256.72892284 494.51541662 C253.13513129 494.51085238 249.54135851 494.51789539 245.9475708 494.52337646 C238.92492967 494.5322301 231.9023315 494.53036652 224.87968874 494.52455118 C219.16789684 494.52001875 213.45611691 494.5194286 207.74432373 494.52159882 C206.92875578 494.52190528 206.11318784 494.52221175 205.27290571 494.5225275 C203.61565542 494.52316701 201.95840513 494.52381543 200.30115485 494.52447268 C184.7920991 494.53016417 169.28306705 494.52363667 153.77401519 494.51287195 C140.49109592 494.50393752 127.20821161 494.50548989 113.92529297 494.51470947 C98.46850574 494.52543303 83.01173924 494.52961496 67.55494881 494.52348495 C65.90408453 494.5228479 64.25322024 494.52221916 62.60235596 494.52159882 C61.38424069 494.52113599 61.38424069 494.52113599 60.14151704 494.52066381 C54.44221964 494.51894312 48.74293549 494.52183842 43.04364014 494.52655792 C36.09004874 494.53218998 29.13650245 494.53060171 22.18291616 494.51999643 C18.64089319 494.51477084 15.09894519 494.51262929 11.55692291 494.51929474 C7.70457366 494.52643407 3.85234491 494.51786114 0 494.50793457 C-1.10139124 494.51239601 -2.20278248 494.51685746 -3.33754921 494.5214541 C-14.09181823 494.46805274 -24.88132455 493.25390749 -35.20166016 490.12896729 C-35.90589111 489.91651367 -36.61012207 489.70406006 -37.33569336 489.48516846 C-65.32638133 480.58967727 -87.67167472 460.39423522 -101.07666016 434.50396729 C-103.78423704 429.02799881 -105.94152824 423.47732038 -107.70166016 417.62896729 C-107.89276367 416.99764893 -108.08386719 416.36633057 -108.28076172 415.71588135 C-111.29901673 404.84249443 -112.12613699 393.66219504 -112.08062744 382.42730713 C-112.08374742 381.2164916 -112.0868674 380.00567608 -112.09008193 378.75816917 C-112.0966162 375.44188102 -112.09435012 372.12582376 -112.08810949 368.80955029 C-112.08354525 365.21575873 -112.09058826 361.62198595 -112.09606934 358.02819824 C-112.10492297 351.00555711 -112.1030594 343.98295894 -112.09724405 336.96031618 C-112.09271162 331.24852428 -112.09212147 325.53674435 -112.09429169 319.82495117 C-112.09459815 319.00938322 -112.09490462 318.19381528 -112.09522037 317.35353315 C-112.09585988 315.69628286 -112.09650831 314.03903257 -112.09716555 312.38178229 C-112.10285704 296.87272654 -112.09632954 281.3636945 -112.08556482 265.85464263 C-112.07663039 252.57172336 -112.07818276 239.28883905 -112.08740234 226.00592041 C-112.0981259 210.54913318 -112.10230783 195.09236668 -112.09617782 179.63557625 C-112.09554078 177.98471197 -112.09491203 176.33384768 -112.09429169 174.6829834 C-112.09398314 173.87090656 -112.09367458 173.05882972 -112.09335668 172.22214448 C-112.09163599 166.52284708 -112.0945313 160.82356293 -112.09925079 155.12426758 C-112.10488285 148.17067618 -112.10329458 141.21712989 -112.09268931 134.26354361 C-112.08746371 130.72152063 -112.08532216 127.17957263 -112.09198761 123.63755035 C-112.09912694 119.7852011 -112.09055401 115.93297235 -112.08062744 112.08062744 C-112.08508888 110.9792362 -112.08955033 109.87784496 -112.09414697 108.74307823 C-112.04074561 97.98880921 -110.82660036 87.19930289 -107.70166016 76.87896729 C-107.48920654 76.17473633 -107.27675293 75.47050537 -107.05786133 74.74493408 C-98.16237014 46.75424611 -77.96692809 24.40895272 -52.07666016 11.00396729 C-46.60069168 8.2963904 -41.05001325 6.13909921 -35.20166016 4.37896729 C-34.5703418 4.18786377 -33.93902344 3.99676025 -33.28857422 3.79986572 C-22.4151873 0.78161072 -11.23488791 -0.04550955 0 0 Z " fill="#00B771" transform="translate(120.82666015625,8.74603271484375)"/>
<path d="M0 0 C1.88776154 -0.01902626 1.88776154 -0.01902626 3.81365967 -0.03843689 C5.18990238 -0.0363847 6.56614397 -0.03339605 7.94238281 -0.02954102 C9.35622407 -0.03410332 10.77006311 -0.03940904 12.18389893 -0.04542542 C15.14970901 -0.05436431 18.11524998 -0.05192715 21.08105469 -0.04199219 C24.86850097 -0.0305372 28.65501007 -0.05065514 32.44233322 -0.07990932 C35.36445964 -0.09832911 38.28636428 -0.09796688 41.20853424 -0.0922718 C42.60388752 -0.0921191 43.99925632 -0.09812132 45.39455414 -0.11056328 C59.4428657 -0.21812591 59.4428657 -0.21812591 64.89550781 4.40405273 C68.30049491 8.73207519 69.65785933 13.44649603 70.86035156 18.78686523 C71.01890625 19.47565765 71.17746094 20.16445007 71.34082031 20.87411499 C71.84860869 23.09021032 72.34079802 25.30945107 72.83300781 27.52905273 C73.18085847 29.05731866 73.52990513 30.58531283 73.88012695 32.11303711 C74.57263013 35.13892899 75.25993755 38.16591597 75.94238281 41.1940918 C77.20181213 46.77296027 78.51082455 52.33976044 79.83300781 57.90405273 C80.1316272 59.1823999 80.1316272 59.1823999 80.4362793 60.48657227 C81.35574433 64.55127781 81.35574433 64.55127781 82.89550781 68.40405273 C83.3258738 72.52296571 83.44141537 74.63847468 80.99951172 78.06298828 C80.13245605 78.88065674 79.26540039 79.6983252 78.37207031 80.54077148 C77.43363281 81.44762695 76.49519531 82.35448242 75.52832031 83.28881836 C74.52657692 84.22398606 73.52396337 85.15822246 72.52050781 86.09155273 C70.56761442 87.94191287 68.6257435 89.80304297 66.68457031 91.66577148 C65.38060303 92.88719849 65.38060303 92.88719849 64.05029297 94.13330078 C62.07081464 96.2193112 60.86251914 97.71829105 59.89550781 100.40405273 C60.8627989 117.30203576 76.25201412 135.18903649 86.89550781 147.40405273 C87.72566406 148.36827148 88.55582031 149.33249023 89.41113281 150.32592773 C100.29346628 162.72860203 112.83958423 172.81155059 126.89550781 181.40405273 C128.02738525 182.09821289 128.02738525 182.09821289 129.18212891 182.80639648 C131.55122858 184.24038915 133.93715382 185.64028801 136.33300781 187.02905273 C137.06616211 187.46749512 137.79931641 187.9059375 138.5546875 188.35766602 C143.61158889 191.20547577 147.0871014 192.19583957 152.89550781 191.40405273 C157.16894977 188.8969573 160.43381415 186.03848943 163.79394531 182.41967773 C165.13199219 181.01782227 165.13199219 181.01782227 166.49707031 179.58764648 C167.89114826 178.11928986 169.27792776 176.64599431 170.64941406 175.15649414 C178.4435678 166.72670607 178.4435678 166.72670607 183.79785156 165.53686523 C185.73242188 165.82006836 185.73242188 165.82006836 187.89550781 166.40405273 C188.79237305 166.63286133 189.68923828 166.86166992 190.61328125 167.09741211 C193.80103549 167.99225657 196.93725554 168.99650417 200.08300781 170.02905273 C202.39884449 170.76652083 204.71526008 171.50217322 207.03222656 172.23608398 C208.18384277 172.6029834 209.33545898 172.96988281 210.52197266 173.34790039 C216.2726167 175.148254 222.06866687 176.78066322 227.86889648 178.41235352 C230.21226631 179.07223333 232.5542886 179.73658398 234.89550781 180.40405273 C236.23657593 180.78400391 236.23657593 180.78400391 237.60473633 181.17163086 C238.94169556 181.55931641 238.94169556 181.55931641 240.30566406 181.95483398 C241.11398682 182.18726807 241.92230957 182.41970215 242.75512695 182.65917969 C247.846423 184.43099949 250.53924097 187.72207842 252.89550781 192.40405273 C253.27645874 195.45278931 253.27645874 195.45278931 253.28369141 198.89086914 C253.29314789 200.18215729 253.30260437 201.47344543 253.31234741 202.80386353 C253.30697853 204.20445057 253.30082579 205.6050348 253.29394531 207.00561523 C253.29596739 208.44859972 253.29887994 209.89158321 253.30264282 211.33456421 C253.30705711 214.3522926 253.3006624 217.36975391 253.28662109 220.38745117 C253.26949861 224.25580822 253.27939483 228.12354221 253.29733849 231.9918766 C253.30817455 234.96872665 253.30473141 237.94542869 253.29695511 240.92228317 C253.29495418 242.34884083 253.29740863 243.77541193 253.30439377 245.20195389 C253.31200778 247.19330846 253.29834594 249.18471019 253.28369141 251.17602539 C253.28130463 252.30900055 253.27891785 253.44197571 253.27645874 254.60928345 C252.89550781 257.40405273 252.89550781 257.40405273 251.6403656 259.27003479 C249.46393122 260.68454298 248.17749335 260.77850502 245.58959961 260.77636719 C244.71986008 260.78259598 243.85012054 260.78882477 242.95402527 260.79524231 C242.0104567 260.78603256 241.06688812 260.77682281 240.09472656 260.76733398 C239.10793411 260.76783249 238.12114166 260.76833099 237.10444641 260.7688446 C235.00198367 260.76649955 232.89951836 260.75674578 230.79711914 260.74023438 C227.66102238 260.71712755 224.52580577 260.7196092 221.38964844 260.72631836 C173.69209321 260.66073882 126.98815598 248.83979549 87.89550781 220.40405273 C87.29996094 219.98075684 86.70441406 219.55746094 86.09082031 219.12133789 C75.58573784 211.64068553 66.12928289 203.39283287 56.89550781 194.40405273 C56.03054687 193.57905273 55.16558594 192.75405273 54.27441406 191.90405273 C48.65766218 186.45278574 43.71927729 180.56169934 38.89550781 174.40405273 C38.16460937 173.47850586 37.43371094 172.55295898 36.68066406 171.59936523 C4.7157431 130.14046951 -9.24991595 81.45626213 -9.34472656 29.58300781 C-9.35456305 26.31803113 -9.38572405 23.05365142 -9.41699219 19.78881836 C-9.42351156 17.7113481 -9.42876619 15.6338734 -9.43261719 13.55639648 C-9.44496399 12.58145737 -9.45731079 11.60651825 -9.47003174 10.60203552 C-9.46703064 9.70001907 -9.46402954 8.79800262 -9.4609375 7.86865234 C-9.46458313 7.07655869 -9.46822876 6.28446503 -9.47198486 5.46836853 C-9.10449219 3.40405273 -9.10449219 3.40405273 -7.96374512 1.65026855 C-5.28038287 -0.14832938 -3.21501649 0.01566086 0 0 Z " fill="#FEFEFE" transform="translate(134.1044921875,125.595947265625)"/>
</svg>
