<?xml version="1.0" encoding="UTF-8"?>
<svg version="1.1" xmlns="http://www.w3.org/2000/svg" width="512" height="512">
<path d="M0 0 C1.63309093 -0.00417981 3.26617895 -0.00966086 4.89926165 -0.01631981 C9.35827209 -0.03070842 13.81709665 -0.0265504 18.27611697 -0.019153 C23.0962963 -0.01440722 27.91643623 -0.02694366 32.73660278 -0.03717041 C42.16887874 -0.05433651 51.60108802 -0.05520291 61.03337554 -0.04995751 C68.70316225 -0.04591028 76.3729293 -0.04736593 84.04271507 -0.05270576 C85.68234457 -0.0538284 85.68234457 -0.0538284 87.35509789 -0.05497371 C89.57596551 -0.05650525 91.79683314 -0.05804359 94.01770075 -0.05958868 C114.82887802 -0.07330595 135.64001767 -0.06788159 156.45119407 -0.05640347 C175.47132249 -0.04647324 194.4913536 -0.05940951 213.51146702 -0.08333766 C233.06227401 -0.10774727 252.61303572 -0.11733186 272.16385764 -0.11068493 C283.13174659 -0.10719668 294.09956073 -0.10939867 305.06743813 -0.12693596 C314.40469083 -0.14168127 323.74181605 -0.142263 333.07906631 -0.12486505 C337.83843908 -0.11637164 342.59758433 -0.11416479 347.35694504 -0.1295166 C351.7225472 -0.14342339 356.08772823 -0.13852421 360.4533064 -0.11927737 C362.02386249 -0.11553531 363.59445281 -0.11838696 365.16497824 -0.12888902 C385.88154904 -0.25745587 403.33778018 5.91590528 418.62419128 20.38768005 C423.83434634 25.72855585 427.53892735 31.67153485 430.93669128 38.26268005 C431.42528625 39.19769348 431.42528625 39.19769348 431.92375183 40.15159607 C437.3747468 51.2761624 438.06296219 62.58622921 438.01187134 74.76348877 C438.01605115 76.3965797 438.02153219 78.02966772 438.02819115 79.66275042 C438.04257976 84.12176085 438.03842174 88.58058542 438.03102434 93.03960574 C438.02627856 97.85978507 438.038815 102.679925 438.04904175 107.50009155 C438.06620785 116.93236751 438.06707425 126.36457679 438.06182884 135.79686431 C438.05778162 143.46665102 438.05923727 151.13641807 438.0645771 158.80620384 C438.06532552 159.89929017 438.06607395 160.9923765 438.06684505 162.11858666 C438.06837658 164.33945428 438.06991493 166.56032191 438.07146002 168.78118952 C438.08517729 189.59236679 438.07975293 210.40350644 438.0682748 231.21468284 C438.05834458 250.23481126 438.07128085 269.25484237 438.095209 288.27495579 C438.11961861 307.82576278 438.1292032 327.37652449 438.12255627 346.92734641 C438.11906802 357.89523536 438.12127001 368.8630495 438.1388073 379.8309269 C438.15355261 389.1681796 438.15413434 398.50530482 438.13673639 407.84255508 C438.12824298 412.60192785 438.12603613 417.3610731 438.14138794 422.12043381 C438.15529472 426.48603597 438.15039554 430.851217 438.1311487 435.21679517 C438.12740664 436.78735126 438.1302583 438.35794158 438.14076035 439.92846701 C438.27271023 461.19016003 431.7270297 478.93864477 416.62419128 494.38768005 C400.94936709 508.34471529 383.76415663 512.86143599 363.24838257 512.77536011 C361.61529164 512.77953992 359.98220362 512.78502096 358.34912091 512.79167992 C353.89011048 512.80606853 349.43128592 512.80191051 344.9722656 512.79451311 C340.15208627 512.78976733 335.33194634 512.80230377 330.51177979 512.81253052 C321.07950383 512.82969662 311.64729455 512.83056302 302.21500703 512.82531761 C294.54522032 512.82127039 286.87545327 512.82272604 279.2056675 512.82806587 C277.566038 512.82918851 277.566038 512.82918851 275.89328468 512.83033382 C273.67241705 512.83186535 271.45154943 512.8334037 269.23068181 512.83494879 C248.41950455 512.84866606 227.6083649 512.8432417 206.7971885 512.83176357 C187.77706008 512.82183335 168.75702896 512.83476962 149.73691555 512.85869776 C130.18610856 512.88310738 110.63534685 512.89269197 91.08452493 512.88604504 C80.11663598 512.88255679 69.14882184 512.88475878 58.18094444 512.90229607 C48.84369174 512.91704138 39.50656652 512.91762311 30.16931625 512.90022516 C25.40994349 512.89173174 20.65079824 512.8895249 15.89143753 512.90487671 C11.52583537 512.91878349 7.16065434 512.91388431 2.79507617 512.89463747 C1.22452008 512.89089541 -0.34607024 512.89374707 -1.91659568 512.90424912 C-23.17828869 513.036199 -40.92677344 506.49051847 -56.37580872 491.38768005 C-70.33284395 475.71285586 -74.84956465 458.5276454 -74.76348877 438.01187134 C-74.76766858 436.37878041 -74.77314963 434.74569239 -74.77980858 433.11260968 C-74.79419719 428.65359925 -74.79003917 424.19477469 -74.78264177 419.73575437 C-74.77789599 414.91557504 -74.79043243 410.0954351 -74.80065918 405.27526855 C-74.81782528 395.8429926 -74.81869168 386.41078332 -74.81344628 376.9784958 C-74.80939905 369.30870909 -74.8108547 361.63894204 -74.81619453 353.96915627 C-74.81694296 352.87606994 -74.81769138 351.78298361 -74.81846248 350.65677345 C-74.81999402 348.43590582 -74.82153236 346.2150382 -74.82307745 343.99417058 C-74.83679472 323.18299331 -74.83137036 302.37185367 -74.81989224 281.56067727 C-74.80996201 262.54054885 -74.82289828 243.52051773 -74.84682643 224.50040432 C-74.87123604 204.94959733 -74.88082063 185.39883562 -74.8741737 165.8480137 C-74.87068545 154.88012475 -74.87288744 143.91231061 -74.89042473 132.94443321 C-74.90517004 123.60718051 -74.90575177 114.27005529 -74.88835382 104.93280502 C-74.87986041 100.17343226 -74.87765356 95.41428701 -74.89300537 90.6549263 C-74.90691216 86.28932414 -74.90201297 81.92414311 -74.88276614 77.55856494 C-74.87902408 75.98800885 -74.88187573 74.41741853 -74.89237779 72.84689309 C-75.02094464 52.1303223 -68.84758349 34.67409116 -54.37580872 19.38768005 C-49.03493292 14.17752499 -43.09195392 10.47294399 -36.50080872 7.07518005 C-35.87746643 6.74945007 -35.25412415 6.42372009 -34.6118927 6.08811951 C-23.48732637 0.63712453 -12.17725956 -0.05109085 0 0 Z " fill="#29A71A" transform="translate(74.37580871582031,-0.3876800537109375)"/>
<path d="M0 0 C34.43316345 -1.29825683 69.75585599 8.31980026 97.60058594 29.09423828 C98.38175781 29.66658203 99.16292969 30.23892578 99.96777344 30.82861328 C105.8169034 35.24075976 111.24801325 40.09740072 116.60058594 45.09423828 C117.80521484 46.20025391 117.80521484 46.20025391 119.03417969 47.32861328 C142.18229005 69.40265132 156.35304503 100.07833991 162.60058594 131.09423828 C162.808125 132.12419922 163.01566406 133.15416016 163.22949219 134.21533203 C165.97715899 150.22097149 165.53362651 167.15525779 162.60058594 183.09423828 C162.47699707 183.80435059 162.3534082 184.51446289 162.22607422 185.24609375 C157.59043397 211.50348393 147.32093776 236.18606619 130.60058594 257.09423828 C130.13539551 257.67753906 129.67020508 258.26083984 129.19091797 258.86181641 C104.16248045 289.86931601 66.87996018 312.16309039 26.93798828 316.82177734 C20.00100251 317.38810332 13.05776428 317.4579106 6.10058594 317.46923828 C5.38405853 317.47141357 4.66753113 317.47358887 3.92929077 317.47583008 C-5.64895714 317.47253155 -14.94666462 316.74353822 -24.39941406 315.09423828 C-25.56875488 314.89145264 -25.56875488 314.89145264 -26.76171875 314.68457031 C-36.5220598 312.85185282 -45.50601584 309.71409856 -54.62451172 305.82421875 C-55.42034668 305.48664551 -56.21618164 305.14907227 -57.03613281 304.80126953 C-57.73440186 304.49680908 -58.4326709 304.19234863 -59.15209961 303.87866211 C-65.00840526 301.83452196 -69.60131512 302.26485603 -75.53222656 303.71923828 C-76.31418396 303.90159531 -77.09614136 304.08395233 -77.90179443 304.27183533 C-80.44543399 304.8682058 -82.98481849 305.48089648 -85.52441406 306.09423828 C-87.28089534 306.50984506 -89.03757029 306.92463413 -90.79443359 307.33862305 C-103.47966236 310.34043933 -116.1344381 313.46654826 -128.76660156 316.68408203 C-147.10004597 321.32056793 -147.10004597 321.32056793 -151.27441406 319.09423828 C-154.19027182 313.91049116 -152.09212594 306.4899809 -150.89550781 300.97705078 C-150.73671646 300.21428329 -150.57792511 299.45151581 -150.4143219 298.66563416 C-150.07280883 297.03034308 -149.72765282 295.39580923 -149.37915039 293.76199341 C-148.82955502 291.18472887 -148.29002293 288.60553169 -147.75292969 286.02563477 C-146.29560169 279.03847723 -144.81631237 272.05600519 -143.33349609 265.07421875 C-142.50404076 261.16842535 -141.68140322 257.26124555 -140.86257935 253.35321045 C-140.40932591 251.20374329 -139.94651908 249.05648603 -139.4831543 246.90917969 C-136.59399966 234.83392107 -136.59399966 234.83392107 -139.52441406 223.15673828 C-156.93648665 187.24742145 -157.68133115 145.17714191 -145.27929688 107.59912109 C-137.31912577 84.93781266 -124.8148124 65.50806872 -108.39941406 48.09423828 C-107.75101563 47.38138672 -107.10261719 46.66853516 -106.43457031 45.93408203 C-95.0403008 33.88371255 -81.12649098 24.55595725 -66.39941406 17.09423828 C-65.76793457 16.77229492 -65.13645508 16.45035156 -64.48583984 16.11865234 C-45.87436086 6.7481731 -25.43115564 0.64683768 -4.50195312 0.14550781 C-3.00096464 0.10890684 -1.50027797 0.05892423 0 0 Z " fill="#29A71A" transform="translate(250.3994140625,95.90576171875)"/>
<path d="M0 0 C34.43316345 -1.29825683 69.75585599 8.31980026 97.60058594 29.09423828 C98.38175781 29.66658203 99.16292969 30.23892578 99.96777344 30.82861328 C105.8169034 35.24075976 111.24801325 40.09740072 116.60058594 45.09423828 C117.80521484 46.20025391 117.80521484 46.20025391 119.03417969 47.32861328 C142.18229005 69.40265132 156.35304503 100.07833991 162.60058594 131.09423828 C162.808125 132.12419922 163.01566406 133.15416016 163.22949219 134.21533203 C165.97715899 150.22097149 165.53362651 167.15525779 162.60058594 183.09423828 C162.47699707 183.80435059 162.3534082 184.51446289 162.22607422 185.24609375 C157.59043397 211.50348393 147.32093776 236.18606619 130.60058594 257.09423828 C130.13539551 257.67753906 129.67020508 258.26083984 129.19091797 258.86181641 C104.16248045 289.86931601 66.87996018 312.16309039 26.93798828 316.82177734 C20.00100251 317.38810332 13.05776428 317.4579106 6.10058594 317.46923828 C5.38405853 317.47141357 4.66753113 317.47358887 3.92929077 317.47583008 C-5.64895714 317.47253155 -14.94666462 316.74353822 -24.39941406 315.09423828 C-25.56875488 314.89145264 -25.56875488 314.89145264 -26.76171875 314.68457031 C-36.5220598 312.85185282 -45.50601584 309.71409856 -54.62451172 305.82421875 C-55.42034668 305.48664551 -56.21618164 305.14907227 -57.03613281 304.80126953 C-57.73440186 304.49680908 -58.4326709 304.19234863 -59.15209961 303.87866211 C-65.00840526 301.83452196 -69.60131512 302.26485603 -75.53222656 303.71923828 C-76.31418396 303.90159531 -77.09614136 304.08395233 -77.90179443 304.27183533 C-80.44543399 304.8682058 -82.98481849 305.48089648 -85.52441406 306.09423828 C-87.28089534 306.50984506 -89.03757029 306.92463413 -90.79443359 307.33862305 C-103.47966236 310.34043933 -116.1344381 313.46654826 -128.76660156 316.68408203 C-147.10004597 321.32056793 -147.10004597 321.32056793 -151.27441406 319.09423828 C-154.19027182 313.91049116 -152.09212594 306.4899809 -150.89550781 300.97705078 C-150.73671646 300.21428329 -150.57792511 299.45151581 -150.4143219 298.66563416 C-150.07280883 297.03034308 -149.72765282 295.39580923 -149.37915039 293.76199341 C-148.82955502 291.18472887 -148.29002293 288.60553169 -147.75292969 286.02563477 C-146.29560169 279.03847723 -144.81631237 272.05600519 -143.33349609 265.07421875 C-142.50404076 261.16842535 -141.68140322 257.26124555 -140.86257935 253.35321045 C-140.40932591 251.20374329 -139.94651908 249.05648603 -139.4831543 246.90917969 C-136.59399966 234.83392107 -136.59399966 234.83392107 -139.52441406 223.15673828 C-156.93648665 187.24742145 -157.68133115 145.17714191 -145.27929688 107.59912109 C-137.31912577 84.93781266 -124.8148124 65.50806872 -108.39941406 48.09423828 C-107.75101563 47.38138672 -107.10261719 46.66853516 -106.43457031 45.93408203 C-95.0403008 33.88371255 -81.12649098 24.55595725 -66.39941406 17.09423828 C-65.76793457 16.77229492 -65.13645508 16.45035156 -64.48583984 16.11865234 C-45.87436086 6.7481731 -25.43115564 0.64683768 -4.50195312 0.14550781 C-3.00096464 0.10890684 -1.50027797 0.05892423 0 0 Z M-92.00488281 81.18017578 C-103.35125875 94.98832659 -111.42721395 111.70866675 -115.39941406 129.09423828 C-115.6971875 130.30337891 -115.99496094 131.51251953 -116.30175781 132.75830078 C-122.8481888 161.9256765 -117.95926658 191.70746482 -104.02758789 217.83056641 C-100.60402579 224.29832519 -100.12042203 228.04424929 -101.76269531 235.19580078 C-101.91473923 235.87291107 -102.06678314 236.55002136 -102.22343445 237.24765015 C-102.71015792 239.40711808 -103.21043724 241.56315353 -103.71191406 243.71923828 C-104.35756427 246.54391783 -104.99816314 249.36973038 -105.63769531 252.19580078 C-105.79255402 252.87813782 -105.94741272 253.56047485 -106.10696411 254.26348877 C-108.53008348 264.58206187 -108.53008348 264.58206187 -109.39941406 275.09423828 C-101.05489512 274.42039992 -93.03400925 272.54701028 -84.89941406 270.65673828 C-83.52321938 270.34051529 -82.14691782 270.02475708 -80.77050781 269.70947266 C-79.76604362 269.47837799 -79.76604362 269.47837799 -78.74128723 269.24261475 C-76.78325343 268.79481296 -74.82315932 268.35605057 -72.86303711 267.91748047 C-70.82157887 267.43226181 -68.78873411 266.89979861 -66.78930664 266.26318359 C-61.16563833 264.53435051 -57.94407748 265.62100191 -52.75097656 268.27172852 C-51.87183594 268.74940674 -50.99269531 269.22708496 -50.08691406 269.71923828 C-48.22864181 270.66538265 -46.36797564 271.60684075 -44.50488281 272.54345703 C-43.62106934 272.99253418 -42.73725586 273.44161133 -41.82666016 273.90429688 C-19.21327042 284.99036221 10.48821725 286.44229288 34.60058594 280.09423828 C35.56303223 279.84480469 35.56303223 279.84480469 36.54492188 279.59033203 C58.14750995 273.85231061 75.99597594 262.86136107 92.60058594 248.09423828 C93.25671875 247.52318359 93.91285156 246.95212891 94.58886719 246.36376953 C115.07939713 227.34034197 128.43296757 196.7182692 129.74853516 168.97412109 C130.10092441 156.97886099 130.37160731 144.83585425 127.60058594 133.09423828 C127.32085937 131.87994141 127.04113281 130.66564453 126.75292969 129.41455078 C122.08182019 110.15352271 113.17564153 93.27102951 100.60058594 78.09423828 C99.97023438 77.32208984 99.33988281 76.54994141 98.69042969 75.75439453 C94.71832109 71.0403431 90.37926249 66.98001333 85.60058594 63.09423828 C84.35921875 62.06169922 84.35921875 62.06169922 83.09277344 61.00830078 C70.97618757 51.38928414 56.39747362 43.62460087 41.60058594 39.09423828 C40.99037598 38.90104004 40.38016602 38.7078418 39.75146484 38.50878906 C28.44418784 35.08445919 17.07701443 34.69959536 5.35058594 34.65673828 C4.63391754 34.65056488 3.91724915 34.64439148 3.17886353 34.63803101 C-35.24962979 34.42532413 -66.90230059 52.95538184 -92.00488281 81.18017578 Z " fill="#FDFEFD" transform="translate(250.3994140625,95.90576171875)"/>
<path d="M0 0 C5.09030126 2.69282431 7.37198375 5.69051127 9.61328125 10.84765625 C10.06310616 11.82731606 10.06310616 11.82731606 10.52201843 12.82676697 C11.46844791 14.89840573 12.39046705 16.9799066 13.3125 19.0625 C13.94962829 20.46489501 14.5882863 21.8665961 15.22851562 23.26757812 C21.56599403 37.20807162 21.56599403 37.20807162 21 44 C19.4027003 47.3789032 17.76991416 50.06859166 15.3984375 52.9375 C12.18740667 56.83334783 9.96947997 59.73957164 10.42578125 64.94140625 C12.73992051 73.23767421 20.2560247 79.93184973 26 86 C26.57621094 86.61746094 27.15242188 87.23492187 27.74609375 87.87109375 C34.84413211 95.2414789 43.03364892 101.40284751 51.3125 107.375 C51.88685791 107.79177002 52.46121582 108.20854004 53.05297852 108.63793945 C58.513548 112.51958721 63.25496381 115.66217027 70.0625 115.33984375 C76.09017498 114.28257011 80.22759258 108.92505349 84.265625 104.70703125 C86.56337134 102.44551064 87.61167262 102.03670492 90.8515625 101.73046875 C96.54896432 101.81741823 101.95078282 103.72297409 107.375 105.3125 C108.46039063 105.62123047 109.54578125 105.92996094 110.6640625 106.24804688 C113.78330058 107.14275587 116.89324746 108.06292906 120 109 C120.88647217 109.26578857 121.77294434 109.53157715 122.6862793 109.80541992 C123.48203369 110.05525635 124.27778809 110.30509277 125.09765625 110.5625 C125.78351807 110.77648437 126.46937988 110.99046875 127.17602539 111.2109375 C130.72775856 112.74743885 132.04253968 114.6533743 134 118 C135.13575847 123.58414582 134.0165504 126.51692125 131.125 131.375 C123.73640199 142.07880396 115.21040017 150.15730966 102.375 153.3125 C81.97241431 156.54899104 63.61841792 151.13146597 46 141 C45.32839844 140.61682617 44.65679687 140.23365234 43.96484375 139.83886719 C34.11712419 134.14419444 25.42214667 127.62420328 17 120 C16.47390137 119.52884766 15.94780273 119.05769531 15.40576172 118.57226562 C11.89486506 115.42523139 8.43658203 112.22800335 5 109 C4.29359375 108.34773438 3.5871875 107.69546875 2.859375 107.0234375 C-15.01000134 89.95309831 -30.35757349 66.05475214 -31.40283203 40.90063477 C-31.61344722 28.21477775 -27.17144792 19.57504696 -19 10 C-8.26422764 -0.68868564 -8.26422764 -0.68868564 0 0 Z " fill="#FDFEFD" transform="translate(207,178)"/>
</svg>
